<svg
	xmlns="http://www.w3.org/2000/svg"  viewBox="0 0 100 100" width="100px" height="100px">
	<path fill="#f9e65c" d="M84.467,44H50v13h20.856C67.931,65.717,59.702,72,50,72c-12.15,0-22-9.85-22-22s9.85-22,22-22	c4.799,0,9.235,1.541,12.851,4.149l9.269-9.269C66.091,17.956,58.391,15,50,15c-19.33,0-35,15.67-35,35s15.67,35,35,35	s35-15.67,35-35C85,47.952,84.806,45.951,84.467,44z"/>
	<path fill="#78a2d2" d="M50,57h20.856c-1.577,4.699-4.704,8.679-8.763,11.36l9.87,8.884C79.911,70.828,85,61.01,85,50	c0-2.048-0.194-4.049-0.533-6H50V57z"/>
	<path fill="#60be92" d="M62.093,68.36C58.622,70.653,54.472,72,50,72c-8.997,0-16.727-5.403-20.137-13.139L18.818,65.89	C24.609,77.23,36.393,85,50,85c8.32,0,15.957-2.908,21.963-7.756L62.093,68.36z"/>
	<path fill="#f15b6c" d="M29.677,41.569C32.985,33.603,40.837,28,50,28c4.799,0,9.235,1.541,12.851,4.149l9.269-9.269	C66.091,17.956,58.391,15,50,15c-13.772,0-25.681,7.958-31.394,19.524L29.677,41.569z"/>
	<path fill="#ffffff" d="M50,86c-19.851,0-36-16.149-36-36s16.149-36,36-36c8.271,0,16.353,2.878,22.753,8.105	c0.219,0.179,0.352,0.442,0.366,0.724c0.014,0.282-0.092,0.558-0.292,0.757l-9.269,9.269c-0.347,0.347-0.895,0.391-1.292,0.104	C58.675,30.369,54.433,29,50,29c-11.579,0-21,9.42-21,21s9.421,21,21,21c8.563,0,16.196-5.168,19.417-13H50c-0.553,0-1-0.448-1-1V44	c0-0.552,0.447-1,1-1h34.467c0.486,0,0.902,0.35,0.985,0.829C85.815,45.922,86,47.999,86,50C86,69.851,69.851,86,50,86z M50,16	c-18.748,0-34,15.252-34,34s15.252,34,34,34s34-15.252,34-34c0-1.624-0.129-3.302-0.384-5H51v11h19.856	c0.322,0,0.624,0.155,0.812,0.416c0.188,0.261,0.239,0.597,0.137,0.902C68.657,66.698,59.895,73,50,73c-12.683,0-23-10.318-23-23	s10.317-23,23-23c4.569,0,8.954,1.329,12.735,3.851l7.883-7.883C64.72,18.467,57.442,16,50,16z"/>
</svg>