<svg
 xmlns="http://www.w3.org/2000/svg"
 width="512"
 height="512"
 enableBackground="new 0 0 512 512"
 viewBox="0 0 256 256"
>
 <g xmlns="http://www.w3.org/2000/svg">
  <path
   fill="#72c1e8"
   d="M128 7.332c-60.596 0-109.709 10.663-109.709 23.82v193.694c0 2.146 1.307 4.226 3.757 6.203 12.57 10.148 55.24 17.616 105.952 17.616 53.782 0 98.518-8.4 107.899-19.487 1.188-1.405 1.809-2.853 1.809-4.332V31.151C237.709 17.994 188.596 7.332 128 7.332z"
   data-original="#72c1e8"
  />
  <path
   fill="#c5e5ff"
   d="M38.475 29.939a2.5 2.5 0 011.646-3.129c7.532-2.341 36.131-9.978 87.88-9.978 32.444 0 55.526 3.005 69.177 5.526a2.5 2.5 0 01-.908 4.917c-13.445-2.483-36.203-5.443-68.269-5.443-51.045 0-79.034 7.465-86.396 9.752a2.5 2.5 0 01-3.13-1.645zm171.939.492a147.012 147.012 0 00-4.48-1.134 2.499 2.499 0 01-1.856-3.009 2.498 2.498 0 013.009-1.856c1.607.38 3.167.775 4.635 1.173a2.5 2.5 0 11-1.308 4.826zM128 239.165c-56.999 0-91.068-9.092-99.154-14.823a2.501 2.501 0 01-1.054-2.04V55.49a2.5 2.5 0 115 0v165.426c8.254 4.586 40.581 13.249 95.208 13.249 48.202 0 75.515-6.529 85.02-9.335a2.5 2.5 0 011.416 4.794c-9.714 2.869-37.582 9.541-86.436 9.541zm92.856-14.29a2.499 2.499 0 011.163-3.338c.932-.45 1.687-.878 2.244-1.273a2.5 2.5 0 112.89 4.079c-.783.555-1.779 1.126-2.959 1.696a2.5 2.5 0 01-3.338-1.164z"
   data-original="#c5e5ff"
  />
  <circle
   cx="128"
   cy="151.402"
   r="72.904"
   fill="#13bf6d"
   data-original="#13bf6d"
  />
  <path
   fill="#76ffba"
   d="M127.968 216.031c-1.215 0-2.447-.035-3.661-.104a2.5 2.5 0 01-2.354-2.638 2.508 2.508 0 012.638-2.354c1.12.063 2.256.096 3.377.096 33.077 0 59.659-26.64 59.659-59.628 0-15.956-6.194-30.937-17.442-42.185a2.498 2.498 0 010-3.535 2.498 2.498 0 013.535 0c12.192 12.192 18.907 28.429 18.907 45.72 0 35.701-28.765 64.628-64.659 64.628zm-13.952-1.518a64.919 64.919 0 01-7.876-2.265 2.5 2.5 0 011.684-4.708 59.958 59.958 0 007.268 2.09 2.5 2.5 0 11-1.076 4.883z"
   data-original="#76ffba"
  />
  <path
   fill="#efefef"
   d="M180.39 151.416c0 29.005-23.549 52.391-52.39 52.391-28.885 0-52.39-23.429-52.39-52.391 0-28.956 23.461-52.417 52.39-52.417s52.39 23.46 52.39 52.417z"
   data-original="#efefef"
  />
  <path
   fill="#fc5d3d"
   d="M150.021 143.839h-44.042a3.841 3.841 0 00-3.841 3.841v31.029a3.841 3.841 0 003.841 3.841h44.042a3.841 3.841 0 003.841-3.841V147.68a3.84 3.84 0 00-3.841-3.841z"
   data-original="#fc5d3d"
  />
  <path
   fill="#ffcbc2"
   d="M143 174.748h-2.5a2.5 2.5 0 110-5h2.5a2.5 2.5 0 110 5zm-12.5 0h-19.75a2.5 2.5 0 01-2.5-2.5v-18.25a2.5 2.5 0 115 0v15.75h17.25a2.5 2.5 0 110 5z"
   data-original="#ffcbc2"
  />
  <circle cx="237.71" cy="76.768" r="2.5" data-original="#000000" />
  <path
   d="M42.14 242.268c1.464.347 2.731-.535 3.06-1.77a2.495 2.495 0 00-1.77-3.06c-1.32-.36-2.71.46-3.06 1.77a2.497 2.497 0 001.77 3.06z"
   data-original="#000000"
  />
  <path
   d="M240.21 66.758v-35.61l-.002-.021C240.14 8.568 151.163 4.832 128 4.832c-22.721 0-112.119 3.679-112.207 26.288 0 .01-.003.019-.003.029v193.7c.02 2.97 1.66 5.76 4.86 8.29 2.77 2.17 6.6 4.16 11.72 6.06 1.244.49 2.725-.164 3.21-1.47.494-1.295-.189-2.742-1.47-3.21-4.5-1.67-8.08-3.5-10.36-5.31-2.47-1.96-2.97-3.45-2.96-4.36v-55.955c7.885 6.156 23.786 10.158 38.088 12.648C70.75 208.729 97.61 226.808 128 226.808c30.274 0 57.204-17.975 69.121-45.267 14.302-2.49 30.204-6.493 38.089-12.648v55.955c0 .96-.51 1.97-1.55 3.08-14.199 15.337-84.764 18.24-105.69 18.24-28.04 0-54.65-2.31-74.94-6.48-1.34-.28-2.69.62-2.96 1.94-.269 1.346.578 2.679 1.95 2.95 20.62 4.25 47.61 6.59 75.98 6.59 23.873 0 93.271-2.918 109.3-19.81 1.9-2 2.91-4.26 2.91-6.51V86.768c0-1.37-1.12-2.49-2.5-2.49s-2.5 1.12-2.5 2.49v9.4c0 4.957-13.136 11.983-42.398 16.69a75.692 75.692 0 00-27.043-26.73c-1.16-.67-2.75-.24-3.42.91-.673 1.162-.306 2.718.91 3.41 21.68 12.58 35.14 35.93 35.14 60.95 0 39.201-31.79 70.41-70.399 70.41-38.885 0-70.39-31.466-70.41-70.41.02-38.576 31.189-70.4 70.41-70.4 5.91 0 11.78.73 17.45 2.18 1.319.33 2.71-.5 3.04-1.81.35-1.318-.467-2.698-1.79-3.03-.011 0-.011-.01-.011-.01A76.128 76.128 0 00128 75.998c-27.166 0-51.455 14.42-64.816 36.86-29.259-4.707-42.394-11.733-42.394-16.69V39.556C40.034 54.568 102.807 57.47 128 57.47c24.155 0 88.152-3.048 107.21-17.914v27.212a2.5 2.5 0 005 0zm-44.843 50.751c15.286-2.553 31.789-6.631 39.843-12.934v55.933c0 4.494-11.167 10.909-35.955 15.564a75.071 75.071 0 004.145-24.674 75.461 75.461 0 00-8.033-33.889zM128 9.832c66.423 0 107.209 12.417 107.209 21.319l-.001.01c-.044 9.489-43.011 21.307-107.029 21.307-62.029 0-107.311-11.284-107.387-21.299l-.001-.018C20.792 22.249 61.577 9.832 128 9.832zM60.642 117.51c-5.503 10.93-8.041 22.345-8.052 33.888a75.259 75.259 0 004.155 24.674c-24.788-4.655-35.955-11.07-35.955-15.564v-55.933c8.056 6.304 24.563 10.383 39.852 12.935z"
   data-original="#000000"
  />
  <path
   d="M156.5 81.568c-1.26-.51-2.75.13-3.26 1.37a2.5 2.5 0 001.369 3.26c1.181.512 2.705-.019 3.261-1.37a2.503 2.503 0 00-1.37-3.26zM109.499 136.257v5.083h-3.52a6.347 6.347 0 00-6.341 6.341v31.029a6.347 6.347 0 006.341 6.341h44.042a6.348 6.348 0 006.342-6.341v-31.03a6.348 6.348 0 00-6.342-6.341h-3.519v-5.083c0-10.202-8.3-18.501-18.502-18.501s-18.501 8.3-18.501 18.502zm41.863 11.423v31.029c0 .739-.602 1.341-1.342 1.341h-44.042a1.343 1.343 0 01-1.341-1.341V147.68c0-.739.602-1.341 1.341-1.341h44.042c.741 0 1.342.602 1.342 1.341zm-9.86-11.423v5.083h-27.003v-5.083c0-7.445 6.057-13.501 13.501-13.501 7.445-.001 13.502 6.056 13.502 13.501z"
   data-original="#000000"
  />
  <path
   d="M128 96.498c-30.403 0-54.89 24.662-54.89 54.92 0 30.638 24.921 54.89 54.88 54.89v-.05l.02.05c29.964 0 54.88-24.277 54.88-54.89 0-30.373-24.596-54.92-54.89-54.92zm49.89 54.92c0 27.394-22.171 49.89-49.89 49.89-27.709 0-49.89-22.483-49.89-49.89 0-27.571 22.285-49.92 49.89-49.92 27.554 0 49.89 22.315 49.89 49.92z"
   data-original="#000000"
  />
 </g>
</svg>
