<svg xmlns="http://www.w3.org/2000/svg" viewBox="0 0 2080.22 1147.71"><defs><style>.cls-1{fill:none;}.cls-2{fill:#1d1d1d;fill-rule:evenodd;}</style></defs><g id="Layer_2" data-name="Layer 2"><g id="Layer_1-2" data-name="Layer 1"><g id="Icons"><g id="Outlined"><g id="Action"><g id="Outlined-_-Action-_-note_add" data-name="Outlined-/-Action-/-note_add"><polygon id="Path" class="cls-1" points="117.36 0 215.19 45.62 169.57 143.46 71.73 97.84 117.36 0"/><path id="_-Icon-Color" data-name="🔹-Icon-Color" class="cls-2" d="M149.44,69.56l-8.15-3.81L135.58,78l-12.23-5.7-3.8,8.15,12.23,5.71-5.7,12.23,8.15,3.8,5.71-12.23,12.23,5.7,3.8-8.15-12.23-5.7Zm21.19-34.79L138,19.56a9,9,0,0,0-11.95,4.35L95.64,89.14a9,9,0,0,0,4.35,12l48.92,22.81a9,9,0,0,0,12-4.35l22.81-48.92Zm-17.91,81L103.8,92.94l30.41-65.23L162.75,41,153.24,61.4l20.39,9.51Z"/></g></g></g></g><g id="Icons-2" data-name="Icons"><g id="Outlined-2" data-name="Outlined"><g id="Action-2" data-name="Action"><g id="Outlined-_-Action-_-note_add-2" data-name="Outlined-/-Action-/-note_add"><polygon id="Path-2" data-name="Path" class="cls-1" points="260.82 0 358.66 45.62 313.04 143.46 215.19 97.84 260.82 0"/><path id="_-Icon-Color-2" data-name="🔹-Icon-Color" class="cls-2" d="M292.91,69.56l-8.16-3.81L279.05,78l-12.23-5.7L263,80.43l12.23,5.71-5.71,12.23,8.16,3.8,5.7-12.23,12.23,5.7,3.8-8.15-12.23-5.7Zm21.18-34.79L281.48,19.56a9,9,0,0,0-12,4.35L239.11,89.14a9,9,0,0,0,4.35,12l48.92,22.81a9,9,0,0,0,11.95-4.35l22.81-48.92Zm-17.91,81L247.26,92.94l30.42-65.23L306.21,41l-9.5,20.38,20.38,9.51Z"/></g></g></g></g><g id="Icons-3" data-name="Icons"><g id="Outlined-3" data-name="Outlined"><g id="Action-3" data-name="Action"><g id="Outlined-_-Action-_-note_add-3" data-name="Outlined-/-Action-/-note_add"><polygon id="Path-3" data-name="Path" class="cls-1" points="404.28 0 502.12 45.62 456.5 143.46 358.66 97.84 404.28 0"/><path id="_-Icon-Color-3" data-name="🔹-Icon-Color" class="cls-2" d="M436.37,69.56l-8.15-3.81L422.51,78l-12.23-5.7-3.8,8.15,12.23,5.71L413,98.37l8.15,3.8,5.7-12.23,12.23,5.7,3.81-8.15-12.23-5.7Zm21.18-34.79L424.94,19.56A9,9,0,0,0,413,23.91L382.57,89.14a9,9,0,0,0,4.35,12l48.92,22.81a9,9,0,0,0,12-4.35l22.81-48.92Zm-17.91,81L390.72,92.94l30.42-65.23L449.68,41,440.17,61.4l20.38,9.51Z"/></g></g></g></g><g id="Icons-4" data-name="Icons"><g id="Outlined-4" data-name="Outlined"><g id="Action-4" data-name="Action"><g id="Outlined-_-Action-_-note_add-4" data-name="Outlined-/-Action-/-note_add"><polygon id="Path-4" data-name="Path" class="cls-1" points="547.75 0 645.59 45.62 599.96 143.46 502.12 97.84 547.75 0"/><path id="_-Icon-Color-4" data-name="🔹-Icon-Color" class="cls-2" d="M579.83,69.56l-8.15-3.81L566,78l-12.23-5.7-3.81,8.15,12.23,5.71-5.7,12.23,8.15,3.8,5.71-12.23,12.23,5.7,3.8-8.15-12.23-5.7ZM601,34.77,568.4,19.56a9,9,0,0,0-11.95,4.35L526,89.14a9,9,0,0,0,4.35,12L579.3,123.9a9,9,0,0,0,12-4.35l22.81-48.92Zm-17.91,81L534.19,92.94,564.6,27.71,593.14,41,583.63,61.4,604,70.91Z"/></g></g></g></g><g id="Icons-5" data-name="Icons"><g id="Outlined-5" data-name="Outlined"><g id="Action-5" data-name="Action"><g id="Outlined-_-Action-_-note_add-5" data-name="Outlined-/-Action-/-note_add"><polygon id="Path-5" data-name="Path" class="cls-1" points="691.21 0 789.05 45.62 743.43 143.46 645.59 97.84 691.21 0"/><path id="_-Icon-Color-5" data-name="🔹-Icon-Color" class="cls-2" d="M723.3,69.56l-8.16-3.81L709.44,78l-12.23-5.7-3.8,8.15,12.23,5.71-5.71,12.23,8.16,3.8,5.7-12.23L726,95.64l3.8-8.15-12.23-5.7Zm21.18-34.79L711.87,19.56a9,9,0,0,0-12,4.35L669.5,89.14a9,9,0,0,0,4.35,12l48.92,22.81a9,9,0,0,0,12-4.35l22.82-48.92Zm-17.91,81L677.65,92.94l30.42-65.23L736.6,41,727.1,61.4l20.38,9.51Z"/></g></g></g></g><g id="Icons-6" data-name="Icons"><g id="Outlined-6" data-name="Outlined"><g id="Action-6" data-name="Action"><g id="Outlined-_-Action-_-note_add-6" data-name="Outlined-/-Action-/-note_add"><polygon id="Path-6" data-name="Path" class="cls-1" points="834.67 0 932.51 45.62 886.89 143.46 789.05 97.84 834.67 0"/><path id="_-Icon-Color-6" data-name="🔹-Icon-Color" class="cls-2" d="M866.76,69.56l-8.15-3.81L852.9,78l-12.23-5.7-3.8,8.15,12.23,5.71-5.7,12.23,8.15,3.8,5.7-12.23,12.23,5.7,3.81-8.15-12.23-5.7ZM888,34.77,855.33,19.56a9,9,0,0,0-12,4.35L813,89.14a9,9,0,0,0,4.35,12l48.92,22.81a9,9,0,0,0,12-4.35L901,70.63Zm-17.92,81L821.11,92.94l30.42-65.23L880.07,41,870.56,61.4,891,70.91Z"/></g></g></g></g><g id="Icons-7" data-name="Icons"><g id="Outlined-7" data-name="Outlined"><g id="Action-7" data-name="Action"><g id="Outlined-_-Action-_-note_add-7" data-name="Outlined-/-Action-/-note_add"><polygon id="Path-7" data-name="Path" class="cls-1" points="978.14 0 1075.98 45.62 1030.35 143.46 932.51 97.84 978.14 0"/><path id="_-Icon-Color-7" data-name="🔹-Icon-Color" class="cls-2" d="M1010.22,69.56l-8.15-3.81L996.37,78l-12.23-5.7-3.8,8.15,12.23,5.71-5.71,12.23,8.16,3.8,5.7-12.23,12.23,5.7,3.8-8.15-12.23-5.7Zm21.19-34.79L998.8,19.56a9,9,0,0,0-12,4.35L956.42,89.14a9,9,0,0,0,4.36,12l48.92,22.81a9,9,0,0,0,11.95-4.35l22.81-48.92Zm-17.91,81L964.58,92.94,995,27.71,1023.53,41,1014,61.4l20.38,9.51Z"/></g></g></g></g><g id="Icons-8" data-name="Icons"><g id="Outlined-8" data-name="Outlined"><g id="Action-8" data-name="Action"><g id="Outlined-_-Action-_-note_add-8" data-name="Outlined-/-Action-/-note_add"><polygon id="Path-8" data-name="Path" class="cls-1" points="1121.6 0 1219.44 45.62 1173.82 143.46 1075.98 97.84 1121.6 0"/><path id="_-Icon-Color-8" data-name="🔹-Icon-Color" class="cls-2" d="M1153.69,69.56l-8.16-3.81L1139.83,78l-12.23-5.7-3.8,8.15L1136,86.14l-5.7,12.23,8.15,3.8,5.7-12.23,12.23,5.7,3.8-8.15L1148,81.79Zm21.18-34.79-32.61-15.21a9,9,0,0,0-12,4.35l-30.41,65.23a9,9,0,0,0,4.35,12l48.92,22.81a9,9,0,0,0,12-4.35l22.81-48.92Zm-17.91,81L1108,92.94l30.42-65.23L1167,41l-9.5,20.38,20.38,9.51Z"/></g></g></g></g><g id="Icons-9" data-name="Icons"><g id="Outlined-9" data-name="Outlined"><g id="Action-9" data-name="Action"><g id="Outlined-_-Action-_-note_add-9" data-name="Outlined-/-Action-/-note_add"><polygon id="Path-9" data-name="Path" class="cls-1" points="1265.07 0 1362.9 45.62 1317.28 143.46 1219.44 97.84 1265.07 0"/><path id="_-Icon-Color-9" data-name="🔹-Icon-Color" class="cls-2" d="M1297.15,69.56,1289,65.75,1283.29,78l-12.23-5.7-3.8,8.15,12.23,5.71-5.7,12.23,8.15,3.8,5.71-12.23,12.23,5.7,3.8-8.15-12.23-5.7Zm21.19-34.79-32.62-15.21a9,9,0,0,0-12,4.35l-30.42,65.23a9,9,0,0,0,4.35,12l48.92,22.81a9,9,0,0,0,12-4.35l22.81-48.92Zm-17.91,81-48.92-22.81,30.41-65.23L1310.46,41,1301,61.4l20.39,9.51Z"/></g></g></g></g><g id="Icons-10" data-name="Icons"><g id="Outlined-10" data-name="Outlined"><g id="Action-10" data-name="Action"><g id="Outlined-_-Action-_-note_add-10" data-name="Outlined-/-Action-/-note_add"><polygon id="Path-10" data-name="Path" class="cls-1" points="1408.53 0 1506.37 45.62 1460.74 143.46 1362.9 97.84 1408.53 0"/><path id="_-Icon-Color-10" data-name="🔹-Icon-Color" class="cls-2" d="M1440.61,69.56l-8.15-3.81L1426.76,78l-12.23-5.7-3.8,8.15L1423,86.14l-5.71,12.23,8.16,3.8,5.7-12.23,12.23,5.7,3.8-8.15-12.23-5.7Zm21.19-34.79-32.61-15.21a9,9,0,0,0-12,4.35l-30.41,65.23a9,9,0,0,0,4.35,12l48.92,22.81a9,9,0,0,0,12-4.35l22.81-48.92Zm-17.91,81L1395,92.94l30.42-65.23L1453.92,41l-9.5,20.38,20.38,9.51Z"/></g></g></g></g><g id="Icons-11" data-name="Icons"><g id="Outlined-11" data-name="Outlined"><g id="Action-11" data-name="Action"><g id="Outlined-_-Action-_-note_add-11" data-name="Outlined-/-Action-/-note_add"><polygon id="Path-11" data-name="Path" class="cls-1" points="1551.99 0 1649.83 45.62 1604.21 143.46 1506.37 97.84 1551.99 0"/><path id="_-Icon-Color-11" data-name="🔹-Icon-Color" class="cls-2" d="M1584.08,69.56l-8.15-3.81L1570.22,78,1558,72.28l-3.8,8.15,12.23,5.71-5.7,12.23,8.15,3.8,5.7-12.23,12.23,5.7,3.81-8.15-12.23-5.7Zm21.18-34.79-32.61-15.21a9,9,0,0,0-12,4.35l-30.42,65.23a9,9,0,0,0,4.35,12l48.92,22.81a9,9,0,0,0,12-4.35l22.81-48.92Zm-17.91,81-48.92-22.81,30.42-65.23L1597.39,41l-9.51,20.38,20.38,9.51Z"/></g></g></g></g><g id="Icons-12" data-name="Icons"><g id="Outlined-12" data-name="Outlined"><g id="Action-12" data-name="Action"><g id="Outlined-_-Action-_-note_add-12" data-name="Outlined-/-Action-/-note_add"><polygon id="Path-12" data-name="Path" class="cls-1" points="1695.46 0 1793.3 45.62 1747.67 143.46 1649.83 97.84 1695.46 0"/><path id="_-Icon-Color-12" data-name="🔹-Icon-Color" class="cls-2" d="M1727.54,69.56l-8.15-3.81L1713.69,78l-12.23-5.7-3.81,8.15,12.23,5.71-5.7,12.23,8.15,3.8L1718,89.94l12.23,5.7,3.8-8.15-12.23-5.7Zm21.19-34.79-32.62-15.21a9,9,0,0,0-11.95,4.35l-30.42,65.23a9,9,0,0,0,4.35,12L1727,123.9a9,9,0,0,0,12-4.35l22.81-48.92Zm-17.91,81L1681.9,92.94l30.41-65.23L1740.85,41l-9.51,20.38,20.39,9.51Z"/></g></g></g></g><g id="Icons-13" data-name="Icons"><g id="Outlined-13" data-name="Outlined"><g id="Action-13" data-name="Action"><g id="Outlined-_-Action-_-note_add-13" data-name="Outlined-/-Action-/-note_add"><polygon id="Path-13" data-name="Path" class="cls-1" points="1838.92 0 1936.76 45.62 1891.14 143.46 1793.3 97.84 1838.92 0"/><path id="_-Icon-Color-13" data-name="🔹-Icon-Color" class="cls-2" d="M1871,69.56l-8.16-3.81L1857.15,78l-12.23-5.7-3.8,8.15,12.23,5.71-5.71,12.23,8.16,3.8,5.7-12.23,12.23,5.7,3.8-8.15-12.23-5.7Zm21.18-34.79-32.61-15.21a9,9,0,0,0-12,4.35l-30.41,65.23a9,9,0,0,0,4.35,12l48.92,22.81a9,9,0,0,0,12-4.35l22.82-48.92Zm-17.91,81-48.92-22.81,30.42-65.23L1884.31,41l-9.5,20.38,20.38,9.51Z"/></g></g></g></g><g id="Icons-14" data-name="Icons"><g id="Outlined-14" data-name="Outlined"><g id="Action-14" data-name="Action"><g id="Outlined-_-Action-_-note_add-14" data-name="Outlined-/-Action-/-note_add"><polygon id="Path-14" data-name="Path" class="cls-1" points="1982.38 0 2080.22 45.62 2034.6 143.46 1936.76 97.84 1982.38 0"/><path id="_-Icon-Color-14" data-name="🔹-Icon-Color" class="cls-2" d="M2014.47,69.56l-8.15-3.81L2000.61,78l-12.23-5.7-3.8,8.15,12.23,5.71-5.7,12.23,8.15,3.8,5.7-12.23,12.23,5.7,3.81-8.15-12.23-5.7Zm21.19-34.79L2003,19.56a9,9,0,0,0-12,4.35l-30.42,65.23a9,9,0,0,0,4.35,12l48.92,22.81a9,9,0,0,0,12-4.35l22.81-48.92Zm-17.92,81-48.92-22.81,30.42-65.23L2027.78,41l-9.51,20.38,20.38,9.51Z"/></g></g></g></g><g id="Icons-15" data-name="Icons"><g id="Outlined-15" data-name="Outlined"><g id="Action-15" data-name="Action"><g id="Outlined-_-Action-_-note_add-15" data-name="Outlined-/-Action-/-note_add"><polygon id="Path-15" data-name="Path" class="cls-1" points="117.36 286.93 215.19 332.55 169.57 430.39 71.73 384.77 117.36 286.93"/><path id="_-Icon-Color-15" data-name="🔹-Icon-Color" class="cls-2" d="M149.44,356.48l-8.15-3.8-5.71,12.23-12.23-5.7-3.8,8.15,12.23,5.7-5.7,12.23,8.15,3.81,5.71-12.23,12.23,5.7,3.8-8.15-12.23-5.71Zm21.19-34.79L138,306.49a9,9,0,0,0-11.95,4.35L95.64,376.06A9,9,0,0,0,100,388l48.92,22.81a9,9,0,0,0,12-4.35l22.81-48.92Zm-17.91,81L103.8,379.87l30.41-65.23L162.75,328l-9.51,20.38,20.39,9.51Z"/></g></g></g></g><g id="Icons-16" data-name="Icons"><g id="Outlined-16" data-name="Outlined"><g id="Action-16" data-name="Action"><g id="Outlined-_-Action-_-note_add-16" data-name="Outlined-/-Action-/-note_add"><polygon id="Path-16" data-name="Path" class="cls-1" points="260.82 286.93 358.66 332.55 313.04 430.39 215.19 384.77 260.82 286.93"/><path id="_-Icon-Color-16" data-name="🔹-Icon-Color" class="cls-2" d="M292.91,356.48l-8.16-3.8-5.7,12.23-12.23-5.7-3.8,8.15,12.23,5.7-5.71,12.23,8.16,3.81,5.7-12.23,12.23,5.7,3.8-8.15-12.23-5.71Zm21.18-34.79-32.61-15.2a9,9,0,0,0-12,4.35l-30.41,65.22a9,9,0,0,0,4.35,12l48.92,22.81a9,9,0,0,0,11.95-4.35l22.81-48.92Zm-17.91,81-48.92-22.81,30.42-65.23L306.21,328l-9.5,20.38,20.38,9.51Z"/></g></g></g></g><g id="Icons-17" data-name="Icons"><g id="Outlined-17" data-name="Outlined"><g id="Action-17" data-name="Action"><g id="Outlined-_-Action-_-note_add-17" data-name="Outlined-/-Action-/-note_add"><polygon id="Path-17" data-name="Path" class="cls-1" points="404.28 286.93 502.12 332.55 456.5 430.39 358.66 384.77 404.28 286.93"/><path id="_-Icon-Color-17" data-name="🔹-Icon-Color" class="cls-2" d="M436.37,356.48l-8.15-3.8-5.71,12.23-12.23-5.7-3.8,8.15,12.23,5.7L413,385.29l8.15,3.81,5.7-12.23,12.23,5.7,3.81-8.15-12.23-5.71Zm21.18-34.79-32.61-15.2A9,9,0,0,0,413,310.84l-30.42,65.22a9,9,0,0,0,4.35,12l48.92,22.81a9,9,0,0,0,12-4.35l22.81-48.92Zm-17.91,81-48.92-22.81,30.42-65.23L449.68,328l-9.51,20.38,20.38,9.51Z"/></g></g></g></g><g id="Icons-18" data-name="Icons"><g id="Outlined-18" data-name="Outlined"><g id="Action-18" data-name="Action"><g id="Outlined-_-Action-_-note_add-18" data-name="Outlined-/-Action-/-note_add"><polygon id="Path-18" data-name="Path" class="cls-1" points="547.75 286.93 645.59 332.55 599.96 430.39 502.12 384.77 547.75 286.93"/><path id="_-Icon-Color-18" data-name="🔹-Icon-Color" class="cls-2" d="M579.83,356.48l-8.15-3.8L566,364.91l-12.23-5.7-3.81,8.15,12.23,5.7-5.7,12.23,8.15,3.81,5.71-12.23,12.23,5.7,3.8-8.15-12.23-5.71ZM601,321.69l-32.62-15.2a9,9,0,0,0-11.95,4.35L526,376.06a9,9,0,0,0,4.35,12l48.92,22.81a9,9,0,0,0,12-4.35l22.81-48.92Zm-17.91,81-48.92-22.81,30.41-65.23L593.14,328l-9.51,20.38L604,357.84Z"/></g></g></g></g><g id="Icons-19" data-name="Icons"><g id="Outlined-19" data-name="Outlined"><g id="Action-19" data-name="Action"><g id="Outlined-_-Action-_-note_add-19" data-name="Outlined-/-Action-/-note_add"><polygon id="Path-19" data-name="Path" class="cls-1" points="691.21 286.93 789.05 332.55 743.43 430.39 645.59 384.77 691.21 286.93"/><path id="_-Icon-Color-19" data-name="🔹-Icon-Color" class="cls-2" d="M723.3,356.48l-8.16-3.8-5.7,12.23-12.23-5.7-3.8,8.15,12.23,5.7-5.71,12.23,8.16,3.81,5.7-12.23,12.23,5.7,3.8-8.15-12.23-5.71Zm21.18-34.79-32.61-15.2a9,9,0,0,0-12,4.35L669.5,376.06a9,9,0,0,0,4.35,12l48.92,22.81a9,9,0,0,0,12-4.35l22.82-48.92Zm-17.91,81-48.92-22.81,30.42-65.23L736.6,328l-9.5,20.38,20.38,9.51Z"/></g></g></g></g><g id="Icons-20" data-name="Icons"><g id="Outlined-20" data-name="Outlined"><g id="Action-20" data-name="Action"><g id="Outlined-_-Action-_-note_add-20" data-name="Outlined-/-Action-/-note_add"><polygon id="Path-20" data-name="Path" class="cls-1" points="834.67 286.93 932.51 332.55 886.89 430.39 789.05 384.77 834.67 286.93"/><path id="_-Icon-Color-20" data-name="🔹-Icon-Color" class="cls-2" d="M866.76,356.48l-8.15-3.8-5.71,12.23-12.23-5.7-3.8,8.15,12.23,5.7-5.7,12.23,8.15,3.81,5.7-12.23,12.23,5.7,3.81-8.15-12.23-5.71ZM888,321.69l-32.62-15.2a9,9,0,0,0-12,4.35L813,376.06a9,9,0,0,0,4.35,12l48.92,22.81a9,9,0,0,0,12-4.35L901,357.56Zm-17.92,81-48.92-22.81,30.42-65.23L880.07,328l-9.51,20.38L891,357.84Z"/></g></g></g></g><g id="Icons-21" data-name="Icons"><g id="Outlined-21" data-name="Outlined"><g id="Action-21" data-name="Action"><g id="Outlined-_-Action-_-note_add-21" data-name="Outlined-/-Action-/-note_add"><polygon id="Path-21" data-name="Path" class="cls-1" points="978.14 286.93 1075.98 332.55 1030.35 430.39 932.51 384.77 978.14 286.93"/><path id="_-Icon-Color-21" data-name="🔹-Icon-Color" class="cls-2" d="M1010.22,356.48l-8.15-3.8-5.7,12.23-12.23-5.7-3.8,8.15,12.23,5.7-5.71,12.23L995,389.1l5.7-12.23,12.23,5.7,3.8-8.15-12.23-5.71Zm21.19-34.79-32.61-15.2a9,9,0,0,0-12,4.35l-30.42,65.22a9,9,0,0,0,4.36,12l48.92,22.81a9,9,0,0,0,11.95-4.35l22.81-48.92Zm-17.91,81-48.92-22.81L995,314.64,1023.53,328l-9.5,20.38,20.38,9.51Z"/></g></g></g></g><g id="Icons-22" data-name="Icons"><g id="Outlined-22" data-name="Outlined"><g id="Action-22" data-name="Action"><g id="Outlined-_-Action-_-note_add-22" data-name="Outlined-/-Action-/-note_add"><polygon id="Path-22" data-name="Path" class="cls-1" points="1121.6 286.93 1219.44 332.55 1173.82 430.39 1075.98 384.77 1121.6 286.93"/><path id="_-Icon-Color-22" data-name="🔹-Icon-Color" class="cls-2" d="M1153.69,356.48l-8.16-3.8-5.7,12.23-12.23-5.7-3.8,8.15,12.23,5.7-5.7,12.23,8.15,3.81,5.7-12.23,12.23,5.7,3.8-8.15L1148,368.71Zm21.18-34.79-32.61-15.2a9,9,0,0,0-12,4.35l-30.41,65.22a9,9,0,0,0,4.35,12l48.92,22.81a9,9,0,0,0,12-4.35l22.81-48.92Zm-17.91,81L1108,379.87l30.42-65.23L1167,328l-9.5,20.38,20.38,9.51Z"/></g></g></g></g><g id="Icons-23" data-name="Icons"><g id="Outlined-23" data-name="Outlined"><g id="Action-23" data-name="Action"><g id="Outlined-_-Action-_-note_add-23" data-name="Outlined-/-Action-/-note_add"><polygon id="Path-23" data-name="Path" class="cls-1" points="1265.07 286.93 1362.9 332.55 1317.28 430.39 1219.44 384.77 1265.07 286.93"/><path id="_-Icon-Color-23" data-name="🔹-Icon-Color" class="cls-2" d="M1297.15,356.48l-8.15-3.8-5.71,12.23-12.23-5.7-3.8,8.15,12.23,5.7-5.7,12.23,8.15,3.81,5.71-12.23,12.23,5.7,3.8-8.15-12.23-5.71Zm21.19-34.79-32.62-15.2a9,9,0,0,0-12,4.35l-30.42,65.22a9,9,0,0,0,4.35,12l48.92,22.81a9,9,0,0,0,12-4.35l22.81-48.92Zm-17.91,81-48.92-22.81,30.41-65.23L1310.46,328,1301,348.33l20.39,9.51Z"/></g></g></g></g><g id="Icons-24" data-name="Icons"><g id="Outlined-24" data-name="Outlined"><g id="Action-24" data-name="Action"><g id="Outlined-_-Action-_-note_add-24" data-name="Outlined-/-Action-/-note_add"><polygon id="Path-24" data-name="Path" class="cls-1" points="1408.53 286.93 1506.37 332.55 1460.74 430.39 1362.9 384.77 1408.53 286.93"/><path id="_-Icon-Color-24" data-name="🔹-Icon-Color" class="cls-2" d="M1440.61,356.48l-8.15-3.8-5.7,12.23-12.23-5.7-3.8,8.15,12.23,5.7-5.71,12.23,8.16,3.81,5.7-12.23,12.23,5.7,3.8-8.15-12.23-5.71Zm21.19-34.79-32.61-15.2a9,9,0,0,0-12,4.35l-30.41,65.22a9,9,0,0,0,4.35,12l48.92,22.81a9,9,0,0,0,12-4.35l22.81-48.92Zm-17.91,81L1395,379.87l30.42-65.23L1453.92,328l-9.5,20.38,20.38,9.51Z"/></g></g></g></g><g id="Icons-25" data-name="Icons"><g id="Outlined-25" data-name="Outlined"><g id="Action-25" data-name="Action"><g id="Outlined-_-Action-_-note_add-25" data-name="Outlined-/-Action-/-note_add"><polygon id="Path-25" data-name="Path" class="cls-1" points="1551.99 286.93 1649.83 332.55 1604.21 430.39 1506.37 384.77 1551.99 286.93"/><path id="_-Icon-Color-25" data-name="🔹-Icon-Color" class="cls-2" d="M1584.08,356.48l-8.15-3.8-5.71,12.23-12.23-5.7-3.8,8.15,12.23,5.7-5.7,12.23,8.15,3.81,5.7-12.23,12.23,5.7,3.81-8.15-12.23-5.71Zm21.18-34.79-32.61-15.2a9,9,0,0,0-12,4.35l-30.42,65.22a9,9,0,0,0,4.35,12l48.92,22.81a9,9,0,0,0,12-4.35l22.81-48.92Zm-17.91,81-48.92-22.81,30.42-65.23L1597.39,328l-9.51,20.38,20.38,9.51Z"/></g></g></g></g><g id="Icons-26" data-name="Icons"><g id="Outlined-26" data-name="Outlined"><g id="Action-26" data-name="Action"><g id="Outlined-_-Action-_-note_add-26" data-name="Outlined-/-Action-/-note_add"><polygon id="Path-26" data-name="Path" class="cls-1" points="1695.46 286.93 1793.3 332.55 1747.67 430.39 1649.83 384.77 1695.46 286.93"/><path id="_-Icon-Color-26" data-name="🔹-Icon-Color" class="cls-2" d="M1727.54,356.48l-8.15-3.8-5.7,12.23-12.23-5.7-3.81,8.15,12.23,5.7-5.7,12.23,8.15,3.81,5.71-12.23,12.23,5.7,3.8-8.15-12.23-5.71Zm21.19-34.79-32.62-15.2a9,9,0,0,0-11.95,4.35l-30.42,65.22a9,9,0,0,0,4.35,12L1727,410.83a9,9,0,0,0,12-4.35l22.81-48.92Zm-17.91,81-48.92-22.81,30.41-65.23L1740.85,328l-9.51,20.38,20.39,9.51Z"/></g></g></g></g><g id="Icons-27" data-name="Icons"><g id="Outlined-27" data-name="Outlined"><g id="Action-27" data-name="Action"><g id="Outlined-_-Action-_-note_add-27" data-name="Outlined-/-Action-/-note_add"><polygon id="Path-27" data-name="Path" class="cls-1" points="1838.92 286.93 1936.76 332.55 1891.14 430.39 1793.3 384.77 1838.92 286.93"/><path id="_-Icon-Color-27" data-name="🔹-Icon-Color" class="cls-2" d="M1871,356.48l-8.16-3.8-5.7,12.23-12.23-5.7-3.8,8.15,12.23,5.7-5.71,12.23,8.16,3.81,5.7-12.23,12.23,5.7,3.8-8.15-12.23-5.71Zm21.18-34.79-32.61-15.2a9,9,0,0,0-12,4.35l-30.41,65.22a9,9,0,0,0,4.35,12l48.92,22.81a9,9,0,0,0,12-4.35l22.82-48.92Zm-17.91,81-48.92-22.81,30.42-65.23L1884.31,328l-9.5,20.38,20.38,9.51Z"/></g></g></g></g><g id="Icons-28" data-name="Icons"><g id="Outlined-28" data-name="Outlined"><g id="Action-28" data-name="Action"><g id="Outlined-_-Action-_-note_add-28" data-name="Outlined-/-Action-/-note_add"><polygon id="Path-28" data-name="Path" class="cls-1" points="1982.38 286.93 2080.22 332.55 2034.6 430.39 1936.76 384.77 1982.38 286.93"/><path id="_-Icon-Color-28" data-name="🔹-Icon-Color" class="cls-2" d="M2014.47,356.48l-8.15-3.8-5.71,12.23-12.23-5.7-3.8,8.15,12.23,5.7-5.7,12.23,8.15,3.81,5.7-12.23,12.23,5.7,3.81-8.15-12.23-5.71Zm21.19-34.79L2003,306.49a9,9,0,0,0-12,4.35l-30.42,65.22a9,9,0,0,0,4.35,12l48.92,22.81a9,9,0,0,0,12-4.35l22.81-48.92Zm-17.92,81-48.92-22.81,30.42-65.23L2027.78,328l-9.51,20.38,20.38,9.51Z"/></g></g></g></g><g id="Icons-29" data-name="Icons"><g id="Outlined-29" data-name="Outlined"><g id="Action-29" data-name="Action"><g id="Outlined-_-Action-_-note_add-29" data-name="Outlined-/-Action-/-note_add"><polygon id="Path-29" data-name="Path" class="cls-1" points="45.62 143.46 143.46 189.09 97.84 286.93 0 241.3 45.62 143.46"/><path id="_-Icon-Color-29" data-name="🔹-Icon-Color" class="cls-2" d="M77.71,213l-8.15-3.8-5.71,12.23-12.23-5.71-3.8,8.16,12.23,5.7-5.7,12.23,8.15,3.8,5.7-12.23,12.23,5.71L84.24,231,72,225.25ZM98.9,178.23,66.28,163a9,9,0,0,0-12,4.35L23.91,232.6a9,9,0,0,0,4.35,12l48.92,22.81a9,9,0,0,0,12-4.35L112,214.1ZM81,259.21,32.06,236.4l30.42-65.22L91,184.48l-9.51,20.39,20.38,9.5Z"/></g></g></g></g><g id="Icons-30" data-name="Icons"><g id="Outlined-30" data-name="Outlined"><g id="Action-30" data-name="Action"><g id="Outlined-_-Action-_-note_add-30" data-name="Outlined-/-Action-/-note_add"><polygon id="Path-30" data-name="Path" class="cls-1" points="189.09 143.46 286.93 189.09 241.3 286.93 143.46 241.3 189.09 143.46"/><path id="_-Icon-Color-30" data-name="🔹-Icon-Color" class="cls-2" d="M221.17,213l-8.15-3.8-5.7,12.23-12.23-5.71-3.81,8.16,12.23,5.7-5.7,12.23,8.16,3.8,5.7-12.23,12.23,5.71,3.8-8.16-12.23-5.7Zm21.19-34.79L209.75,163a9,9,0,0,0-12,4.35L167.37,232.6a9,9,0,0,0,4.36,12l48.92,22.81A9,9,0,0,0,232.6,263l22.81-48.92Zm-17.91,81L175.53,236.4l30.41-65.22,28.54,13.3L225,204.87l20.38,9.5Z"/></g></g></g></g><g id="Icons-31" data-name="Icons"><g id="Outlined-31" data-name="Outlined"><g id="Action-31" data-name="Action"><g id="Outlined-_-Action-_-note_add-31" data-name="Outlined-/-Action-/-note_add"><polygon id="Path-31" data-name="Path" class="cls-1" points="332.55 143.46 430.39 189.09 384.77 286.93 286.93 241.3 332.55 143.46"/><path id="_-Icon-Color-31" data-name="🔹-Icon-Color" class="cls-2" d="M364.64,213l-8.16-3.8-5.7,12.23-12.23-5.71-3.8,8.16L347,229.6l-5.7,12.23,8.15,3.8,5.7-12.23,12.23,5.71,3.8-8.16-12.23-5.7Zm21.18-34.79L353.21,163a9,9,0,0,0-12,4.35L310.84,232.6a9,9,0,0,0,4.35,12l48.92,22.81A9,9,0,0,0,376.06,263l22.82-48.92Zm-17.91,81L319,236.4l30.42-65.22,28.53,13.3-9.5,20.39,20.38,9.5Z"/></g></g></g></g><g id="Icons-32" data-name="Icons"><g id="Outlined-32" data-name="Outlined"><g id="Action-32" data-name="Action"><g id="Outlined-_-Action-_-note_add-32" data-name="Outlined-/-Action-/-note_add"><polygon id="Path-32" data-name="Path" class="cls-1" points="476.01 143.46 573.86 189.09 528.23 286.93 430.39 241.3 476.01 143.46"/><path id="_-Icon-Color-32" data-name="🔹-Icon-Color" class="cls-2" d="M508.1,213l-8.15-3.8-5.71,12.23L482,215.74l-3.8,8.16,12.23,5.7-5.7,12.23,8.15,3.8,5.71-12.23,12.23,5.71,3.8-8.16-12.23-5.7Zm21.19-34.79L496.67,163a9,9,0,0,0-11.95,4.35L454.3,232.6a9,9,0,0,0,4.35,12l48.92,22.81a9,9,0,0,0,12-4.35l22.81-48.92Zm-17.91,81L462.46,236.4l30.41-65.22,28.54,13.3-9.51,20.39,20.39,9.5Z"/></g></g></g></g><g id="Icons-33" data-name="Icons"><g id="Outlined-33" data-name="Outlined"><g id="Action-33" data-name="Action"><g id="Outlined-_-Action-_-note_add-33" data-name="Outlined-/-Action-/-note_add"><polygon id="Path-33" data-name="Path" class="cls-1" points="619.48 143.46 717.32 189.09 671.7 286.93 573.86 241.3 619.48 143.46"/><path id="_-Icon-Color-33" data-name="🔹-Icon-Color" class="cls-2" d="M651.56,213l-8.15-3.8-5.7,12.23-12.23-5.71-3.8,8.16,12.23,5.7-5.71,12.23,8.16,3.8,5.7-12.23,12.23,5.71,3.8-8.16-12.23-5.7Zm21.19-34.79L640.14,163a9,9,0,0,0-12,4.35L597.77,232.6a9,9,0,0,0,4.35,12L651,267.37A9,9,0,0,0,663,263L685.8,214.1Zm-17.91,81L605.92,236.4l30.41-65.22,28.54,13.3-9.5,20.39,20.38,9.5Z"/></g></g></g></g><g id="Icons-34" data-name="Icons"><g id="Outlined-34" data-name="Outlined"><g id="Action-34" data-name="Action"><g id="Outlined-_-Action-_-note_add-34" data-name="Outlined-/-Action-/-note_add"><polygon id="Path-34" data-name="Path" class="cls-1" points="762.94 143.46 860.78 189.09 815.16 286.93 717.32 241.3 762.94 143.46"/><path id="_-Icon-Color-34" data-name="🔹-Icon-Color" class="cls-2" d="M795,213l-8.16-3.8-5.7,12.23-12.23-5.71-3.8,8.16,12.23,5.7-5.7,12.23,8.15,3.8,5.7-12.23,12.23,5.71,3.81-8.16-12.23-5.7Zm21.18-34.79L783.6,163a9,9,0,0,0-12,4.35L741.23,232.6a9,9,0,0,0,4.35,12l48.92,22.81a9,9,0,0,0,12-4.35l22.81-48.92Zm-17.91,81L749.38,236.4l30.42-65.22,28.54,13.3-9.51,20.39,20.38,9.5Z"/></g></g></g></g><g id="Icons-35" data-name="Icons"><g id="Outlined-35" data-name="Outlined"><g id="Action-35" data-name="Action"><g id="Outlined-_-Action-_-note_add-35" data-name="Outlined-/-Action-/-note_add"><polygon id="Path-35" data-name="Path" class="cls-1" points="906.41 143.46 1004.25 189.09 958.62 286.93 860.78 241.3 906.41 143.46"/><path id="_-Icon-Color-35" data-name="🔹-Icon-Color" class="cls-2" d="M938.49,213l-8.15-3.8-5.7,12.23-12.23-5.71-3.81,8.16,12.23,5.7-5.7,12.23,8.15,3.8L929,233.4l12.23,5.71L945,231l-12.23-5.7Zm21.19-34.79L927.06,163a9,9,0,0,0-11.95,4.35L884.69,232.6a9,9,0,0,0,4.35,12L938,267.37a9,9,0,0,0,12-4.35l22.81-48.92Zm-17.91,81L892.85,236.4l30.41-65.22,28.54,13.3-9.51,20.39,20.39,9.5Z"/></g></g></g></g><g id="Icons-36" data-name="Icons"><g id="Outlined-36" data-name="Outlined"><g id="Action-36" data-name="Action"><g id="Outlined-_-Action-_-note_add-36" data-name="Outlined-/-Action-/-note_add"><polygon id="Path-36" data-name="Path" class="cls-1" points="1049.87 143.46 1147.71 189.09 1102.09 286.93 1004.25 241.3 1049.87 143.46"/><path id="_-Icon-Color-36" data-name="🔹-Icon-Color" class="cls-2" d="M1082,213l-8.16-3.8-5.7,12.23-12.23-5.71-3.8,8.16,12.23,5.7-5.71,12.23,8.16,3.8,5.7-12.23,12.23,5.71,3.8-8.16-12.23-5.7Zm21.18-34.79L1070.53,163a9,9,0,0,0-12,4.35l-30.41,65.23a9,9,0,0,0,4.35,12l48.92,22.81a9,9,0,0,0,12-4.35l22.82-48.92Zm-17.91,81-48.92-22.81,30.42-65.22,28.53,13.3-9.5,20.39,20.38,9.5Z"/></g></g></g></g><g id="Icons-37" data-name="Icons"><g id="Outlined-37" data-name="Outlined"><g id="Action-37" data-name="Action"><g id="Outlined-_-Action-_-note_add-37" data-name="Outlined-/-Action-/-note_add"><polygon id="Path-37" data-name="Path" class="cls-1" points="1193.33 143.46 1291.17 189.09 1245.55 286.93 1147.71 241.3 1193.33 143.46"/><path id="_-Icon-Color-37" data-name="🔹-Icon-Color" class="cls-2" d="M1225.42,213l-8.15-3.8-5.71,12.23-12.23-5.71-3.8,8.16,12.23,5.7-5.7,12.23,8.15,3.8,5.7-12.23,12.23,5.71L1232,231l-12.23-5.7Zm21.18-34.79L1214,163a9,9,0,0,0-12,4.35l-30.42,65.23a9,9,0,0,0,4.35,12l48.92,22.81a9,9,0,0,0,12-4.35l22.81-48.92Zm-17.91,81-48.92-22.81,30.42-65.22,28.54,13.3-9.51,20.39,20.38,9.5Z"/></g></g></g></g><g id="Icons-38" data-name="Icons"><g id="Outlined-38" data-name="Outlined"><g id="Action-38" data-name="Action"><g id="Outlined-_-Action-_-note_add-38" data-name="Outlined-/-Action-/-note_add"><polygon id="Path-38" data-name="Path" class="cls-1" points="1336.8 143.46 1434.64 189.09 1389.01 286.93 1291.17 241.3 1336.8 143.46"/><path id="_-Icon-Color-38" data-name="🔹-Icon-Color" class="cls-2" d="M1368.88,213l-8.15-3.8-5.7,12.23-12.23-5.71L1339,223.9l12.23,5.7-5.7,12.23,8.16,3.8,5.7-12.23,12.23,5.71,3.8-8.16-12.23-5.7Zm21.19-34.79L1357.46,163a9,9,0,0,0-12,4.35l-30.42,65.23a9,9,0,0,0,4.36,12l48.92,22.81a9,9,0,0,0,12-4.35l22.81-48.92Zm-17.91,81-48.92-22.81,30.41-65.22,28.54,13.3-9.5,20.39,20.38,9.5Z"/></g></g></g></g><g id="Icons-39" data-name="Icons"><g id="Outlined-39" data-name="Outlined"><g id="Action-39" data-name="Action"><g id="Outlined-_-Action-_-note_add-39" data-name="Outlined-/-Action-/-note_add"><polygon id="Path-39" data-name="Path" class="cls-1" points="1480.26 143.46 1578.1 189.09 1532.48 286.93 1434.64 241.3 1480.26 143.46"/><path id="_-Icon-Color-39" data-name="🔹-Icon-Color" class="cls-2" d="M1512.35,213l-8.16-3.8-5.7,12.23-12.23-5.71-3.8,8.16,12.23,5.7-5.7,12.23,8.15,3.8,5.7-12.23,12.23,5.71,3.8-8.16-12.23-5.7Zm21.18-34.79L1500.92,163a9,9,0,0,0-12,4.35l-30.41,65.23a9,9,0,0,0,4.35,12l48.92,22.81a9,9,0,0,0,12-4.35l22.82-48.92Zm-17.91,81L1466.7,236.4l30.42-65.22,28.53,13.3-9.5,20.39,20.38,9.5Z"/></g></g></g></g><g id="Icons-40" data-name="Icons"><g id="Outlined-40" data-name="Outlined"><g id="Action-40" data-name="Action"><g id="Outlined-_-Action-_-note_add-40" data-name="Outlined-/-Action-/-note_add"><polygon id="Path-40" data-name="Path" class="cls-1" points="1623.72 143.46 1721.57 189.09 1675.94 286.93 1578.1 241.3 1623.72 143.46"/><path id="_-Icon-Color-40" data-name="🔹-Icon-Color" class="cls-2" d="M1655.81,213l-8.15-3.8L1642,221.45l-12.23-5.71-3.8,8.16,12.23,5.7-5.7,12.23,8.15,3.8,5.71-12.23,12.23,5.71,3.8-8.16-12.23-5.7ZM1677,178.23,1644.38,163a9,9,0,0,0-12,4.35L1602,232.6a9,9,0,0,0,4.35,12l48.92,22.81a9,9,0,0,0,12-4.35l22.81-48.92Zm-17.92,81-48.92-22.81,30.42-65.22,28.54,13.3-9.51,20.39,20.39,9.5Z"/></g></g></g></g><g id="Icons-41" data-name="Icons"><g id="Outlined-41" data-name="Outlined"><g id="Action-41" data-name="Action"><g id="Outlined-_-Action-_-note_add-41" data-name="Outlined-/-Action-/-note_add"><polygon id="Path-41" data-name="Path" class="cls-1" points="1767.19 143.46 1865.03 189.09 1819.4 286.93 1721.57 241.3 1767.19 143.46"/><path id="_-Icon-Color-41" data-name="🔹-Icon-Color" class="cls-2" d="M1799.27,213l-8.15-3.8-5.7,12.23-12.23-5.71-3.8,8.16,12.23,5.7-5.71,12.23,8.16,3.8,5.7-12.23,12.23,5.71,3.8-8.16-12.23-5.7Zm21.19-34.79L1787.85,163a9,9,0,0,0-12,4.35l-30.41,65.23a9,9,0,0,0,4.35,12l48.92,22.81a9,9,0,0,0,12-4.35l22.81-48.92Zm-17.91,81-48.92-22.81L1784,171.18l28.54,13.3-9.5,20.39,20.38,9.5Z"/></g></g></g></g><g id="Icons-42" data-name="Icons"><g id="Outlined-42" data-name="Outlined"><g id="Action-42" data-name="Action"><g id="Outlined-_-Action-_-note_add-42" data-name="Outlined-/-Action-/-note_add"><polygon id="Path-42" data-name="Path" class="cls-1" points="1910.65 143.46 2008.49 189.09 1962.87 286.93 1865.03 241.3 1910.65 143.46"/><path id="_-Icon-Color-42" data-name="🔹-Icon-Color" class="cls-2" d="M1942.74,213l-8.16-3.8-5.7,12.23-12.23-5.71-3.8,8.16,12.23,5.7-5.7,12.23,8.15,3.8,5.7-12.23,12.23,5.71,3.8-8.16-12.23-5.7Zm21.18-34.79L1931.31,163a9,9,0,0,0-12,4.35l-30.41,65.23a9,9,0,0,0,4.35,12l48.92,22.81a9,9,0,0,0,12-4.35L1977,214.1Zm-17.91,81-48.92-22.81,30.42-65.22,28.53,13.3-9.5,20.39,20.38,9.5Z"/></g></g></g></g><g id="Icons-43" data-name="Icons"><g id="Outlined-43" data-name="Outlined"><g id="Action-43" data-name="Action"><g id="Outlined-_-Action-_-note_add-43" data-name="Outlined-/-Action-/-note_add"><polygon id="Path-43" data-name="Path" class="cls-1" points="45.62 430.39 143.46 476.01 97.84 573.86 0 528.23 45.62 430.39"/><path id="_-Icon-Color-43" data-name="🔹-Icon-Color" class="cls-2" d="M77.71,500l-8.15-3.8-5.71,12.23-12.23-5.71-3.8,8.16,12.23,5.7-5.7,12.23,8.15,3.8,5.7-12.23L80.43,526l3.81-8.15L72,512.18ZM98.9,465.16,66.28,450a9,9,0,0,0-12,4.35L23.91,519.53a9,9,0,0,0,4.35,12L77.18,554.3a9,9,0,0,0,12-4.36L112,501ZM81,546.14,32.06,523.33,62.48,458.1,91,471.41l-9.51,20.38,20.38,9.51Z"/></g></g></g></g><g id="Icons-44" data-name="Icons"><g id="Outlined-44" data-name="Outlined"><g id="Action-44" data-name="Action"><g id="Outlined-_-Action-_-note_add-44" data-name="Outlined-/-Action-/-note_add"><polygon id="Path-44" data-name="Path" class="cls-1" points="189.09 430.39 286.93 476.01 241.3 573.86 143.46 528.23 189.09 430.39"/><path id="_-Icon-Color-44" data-name="🔹-Icon-Color" class="cls-2" d="M221.17,500l-8.15-3.8-5.7,12.23-12.23-5.71-3.81,8.16,12.23,5.7-5.7,12.23,8.16,3.8,5.7-12.23L223.9,526l3.8-8.15-12.23-5.7Zm21.19-34.79L209.75,450a9,9,0,0,0-12,4.35l-30.42,65.23a9,9,0,0,0,4.36,12l48.92,22.82a9,9,0,0,0,11.95-4.36L255.41,501Zm-17.91,81-48.92-22.81,30.41-65.23,28.54,13.31L225,491.79l20.38,9.51Z"/></g></g></g></g><g id="Icons-45" data-name="Icons"><g id="Outlined-45" data-name="Outlined"><g id="Action-45" data-name="Action"><g id="Outlined-_-Action-_-note_add-45" data-name="Outlined-/-Action-/-note_add"><polygon id="Path-45" data-name="Path" class="cls-1" points="332.55 430.39 430.39 476.01 384.77 573.86 286.93 528.23 332.55 430.39"/><path id="_-Icon-Color-45" data-name="🔹-Icon-Color" class="cls-2" d="M364.64,500l-8.16-3.8-5.7,12.23-12.23-5.71-3.8,8.16,12.23,5.7-5.7,12.23,8.15,3.8,5.7-12.23,12.23,5.7,3.8-8.15-12.23-5.7Zm21.18-34.79L353.21,450a9,9,0,0,0-12,4.35l-30.41,65.23a9,9,0,0,0,4.35,12l48.92,22.82a9,9,0,0,0,11.95-4.36L398.88,501Zm-17.91,81L319,523.33l30.42-65.23,28.53,13.31-9.5,20.38,20.38,9.51Z"/></g></g></g></g><g id="Icons-46" data-name="Icons"><g id="Outlined-46" data-name="Outlined"><g id="Action-46" data-name="Action"><g id="Outlined-_-Action-_-note_add-46" data-name="Outlined-/-Action-/-note_add"><polygon id="Path-46" data-name="Path" class="cls-1" points="476.01 430.39 573.86 476.01 528.23 573.86 430.39 528.23 476.01 430.39"/><path id="_-Icon-Color-46" data-name="🔹-Icon-Color" class="cls-2" d="M508.1,500l-8.15-3.8-5.71,12.23L482,502.67l-3.8,8.16,12.23,5.7-5.7,12.23,8.15,3.8,5.71-12.23,12.23,5.7,3.8-8.15-12.23-5.7Zm21.19-34.79L496.67,450a9,9,0,0,0-11.95,4.35L454.3,519.53a9,9,0,0,0,4.35,12l48.92,22.82a9,9,0,0,0,12-4.36L542.34,501Zm-17.91,81-48.92-22.81,30.41-65.23,28.54,13.31-9.51,20.38,20.39,9.51Z"/></g></g></g></g><g id="Icons-47" data-name="Icons"><g id="Outlined-47" data-name="Outlined"><g id="Action-47" data-name="Action"><g id="Outlined-_-Action-_-note_add-47" data-name="Outlined-/-Action-/-note_add"><polygon id="Path-47" data-name="Path" class="cls-1" points="619.48 430.39 717.32 476.01 671.7 573.86 573.86 528.23 619.48 430.39"/><path id="_-Icon-Color-47" data-name="🔹-Icon-Color" class="cls-2" d="M651.56,500l-8.15-3.8-5.7,12.23-12.23-5.71-3.8,8.16,12.23,5.7-5.71,12.23,8.16,3.8,5.7-12.23,12.23,5.7,3.8-8.15-12.23-5.7Zm21.19-34.79L640.14,450a9,9,0,0,0-12,4.35l-30.41,65.23a9,9,0,0,0,4.35,12L651,554.3a9,9,0,0,0,12-4.36L685.8,501Zm-17.91,81-48.92-22.81,30.41-65.23,28.54,13.31-9.5,20.38,20.38,9.51Z"/></g></g></g></g><g id="Icons-48" data-name="Icons"><g id="Outlined-48" data-name="Outlined"><g id="Action-48" data-name="Action"><g id="Outlined-_-Action-_-note_add-48" data-name="Outlined-/-Action-/-note_add"><polygon id="Path-48" data-name="Path" class="cls-1" points="762.94 430.39 860.78 476.01 815.16 573.86 717.32 528.23 762.94 430.39"/><path id="_-Icon-Color-48" data-name="🔹-Icon-Color" class="cls-2" d="M795,500l-8.16-3.8-5.7,12.23-12.23-5.71-3.8,8.16,12.23,5.7-5.7,12.23,8.15,3.8,5.7-12.23,12.23,5.7,3.81-8.15-12.23-5.7Zm21.18-34.79L783.6,450a9,9,0,0,0-12,4.35l-30.42,65.23a9,9,0,0,0,4.35,12L794.5,554.3a9,9,0,0,0,12-4.36L829.27,501Zm-17.91,81-48.92-22.81L779.8,458.1l28.54,13.31-9.51,20.38,20.38,9.51Z"/></g></g></g></g><g id="Icons-49" data-name="Icons"><g id="Outlined-49" data-name="Outlined"><g id="Action-49" data-name="Action"><g id="Outlined-_-Action-_-note_add-49" data-name="Outlined-/-Action-/-note_add"><polygon id="Path-49" data-name="Path" class="cls-1" points="906.41 430.39 1004.25 476.01 958.62 573.86 860.78 528.23 906.41 430.39"/><path id="_-Icon-Color-49" data-name="🔹-Icon-Color" class="cls-2" d="M938.49,500l-8.15-3.8-5.7,12.23-12.23-5.71-3.81,8.16,12.23,5.7-5.7,12.23,8.15,3.8L929,520.33l12.23,5.7,3.8-8.15-12.23-5.7Zm21.19-34.79L927.06,450a9,9,0,0,0-11.95,4.35l-30.42,65.23a9,9,0,0,0,4.35,12L938,554.3a9,9,0,0,0,12-4.36L972.73,501Zm-17.91,81-48.92-22.81,30.41-65.23,28.54,13.31-9.51,20.38,20.39,9.51Z"/></g></g></g></g><g id="Icons-50" data-name="Icons"><g id="Outlined-50" data-name="Outlined"><g id="Action-50" data-name="Action"><g id="Outlined-_-Action-_-note_add-50" data-name="Outlined-/-Action-/-note_add"><polygon id="Path-50" data-name="Path" class="cls-1" points="1049.87 430.39 1147.71 476.01 1102.09 573.86 1004.25 528.23 1049.87 430.39"/><path id="_-Icon-Color-50" data-name="🔹-Icon-Color" class="cls-2" d="M1082,500l-8.16-3.8-5.7,12.23-12.23-5.71-3.8,8.16,12.23,5.7-5.71,12.23,8.16,3.8,5.7-12.23,12.23,5.7,3.8-8.15-12.23-5.7Zm21.18-34.79L1070.53,450a9,9,0,0,0-12,4.35l-30.41,65.23a9,9,0,0,0,4.35,12l48.92,22.82a9,9,0,0,0,12-4.36L1116.2,501Zm-17.91,81-48.92-22.81,30.42-65.23,28.53,13.31-9.5,20.38,20.38,9.51Z"/></g></g></g></g><g id="Icons-51" data-name="Icons"><g id="Outlined-51" data-name="Outlined"><g id="Action-51" data-name="Action"><g id="Outlined-_-Action-_-note_add-51" data-name="Outlined-/-Action-/-note_add"><polygon id="Path-51" data-name="Path" class="cls-1" points="1193.33 430.39 1291.17 476.01 1245.55 573.86 1147.71 528.23 1193.33 430.39"/><path id="_-Icon-Color-51" data-name="🔹-Icon-Color" class="cls-2" d="M1225.42,500l-8.15-3.8-5.71,12.23-12.23-5.71-3.8,8.16,12.23,5.7-5.7,12.23,8.15,3.8,5.7-12.23,12.23,5.7,3.81-8.15-12.23-5.7Zm21.18-34.79L1214,450a9,9,0,0,0-12,4.35l-30.42,65.23a9,9,0,0,0,4.35,12l48.92,22.82a9,9,0,0,0,12-4.36L1259.66,501Zm-17.91,81-48.92-22.81,30.42-65.23,28.54,13.31-9.51,20.38,20.38,9.51Z"/></g></g></g></g><g id="Icons-52" data-name="Icons"><g id="Outlined-52" data-name="Outlined"><g id="Action-52" data-name="Action"><g id="Outlined-_-Action-_-note_add-52" data-name="Outlined-/-Action-/-note_add"><polygon id="Path-52" data-name="Path" class="cls-1" points="1336.8 430.39 1434.64 476.01 1389.01 573.86 1291.17 528.23 1336.8 430.39"/><path id="_-Icon-Color-52" data-name="🔹-Icon-Color" class="cls-2" d="M1368.88,500l-8.15-3.8-5.7,12.23-12.23-5.71-3.81,8.16,12.23,5.7-5.7,12.23,8.16,3.8,5.7-12.23,12.23,5.7,3.8-8.15-12.23-5.7Zm21.19-34.79L1357.46,450a9,9,0,0,0-12,4.35l-30.42,65.23a9,9,0,0,0,4.36,12l48.92,22.82a9,9,0,0,0,12-4.36L1403.12,501Zm-17.91,81-48.92-22.81,30.41-65.23,28.54,13.31-9.5,20.38,20.38,9.51Z"/></g></g></g></g><g id="Icons-53" data-name="Icons"><g id="Outlined-53" data-name="Outlined"><g id="Action-53" data-name="Action"><g id="Outlined-_-Action-_-note_add-53" data-name="Outlined-/-Action-/-note_add"><polygon id="Path-53" data-name="Path" class="cls-1" points="1480.26 430.39 1578.1 476.01 1532.48 573.86 1434.64 528.23 1480.26 430.39"/><path id="_-Icon-Color-53" data-name="🔹-Icon-Color" class="cls-2" d="M1512.35,500l-8.16-3.8-5.7,12.23-12.23-5.71-3.8,8.16,12.23,5.7-5.7,12.23,8.15,3.8,5.7-12.23,12.23,5.7,3.8-8.15-12.23-5.7Zm21.18-34.79L1500.92,450a9,9,0,0,0-12,4.35l-30.41,65.23a9,9,0,0,0,4.35,12l48.92,22.82a9,9,0,0,0,12-4.36L1546.59,501Zm-17.91,81-48.92-22.81,30.42-65.23,28.53,13.31-9.5,20.38,20.38,9.51Z"/></g></g></g></g><g id="Icons-54" data-name="Icons"><g id="Outlined-54" data-name="Outlined"><g id="Action-54" data-name="Action"><g id="Outlined-_-Action-_-note_add-54" data-name="Outlined-/-Action-/-note_add"><polygon id="Path-54" data-name="Path" class="cls-1" points="1623.72 430.39 1721.57 476.01 1675.94 573.86 1578.1 528.23 1623.72 430.39"/><path id="_-Icon-Color-54" data-name="🔹-Icon-Color" class="cls-2" d="M1655.81,500l-8.15-3.8L1642,508.38l-12.23-5.71-3.8,8.16,12.23,5.7-5.7,12.23,8.15,3.8,5.71-12.23,12.23,5.7,3.8-8.15-12.23-5.7ZM1677,465.16,1644.38,450a9,9,0,0,0-12,4.35L1602,519.53a9,9,0,0,0,4.35,12l48.92,22.82a9,9,0,0,0,12-4.36L1690.05,501Zm-17.92,81-48.92-22.81,30.42-65.23,28.54,13.31-9.51,20.38L1680,501.3Z"/></g></g></g></g><g id="Icons-55" data-name="Icons"><g id="Outlined-55" data-name="Outlined"><g id="Action-55" data-name="Action"><g id="Outlined-_-Action-_-note_add-55" data-name="Outlined-/-Action-/-note_add"><polygon id="Path-55" data-name="Path" class="cls-1" points="1767.19 430.39 1865.03 476.01 1819.4 573.86 1721.57 528.23 1767.19 430.39"/><path id="_-Icon-Color-55" data-name="🔹-Icon-Color" class="cls-2" d="M1799.27,500l-8.15-3.8-5.7,12.23-12.23-5.71-3.8,8.16,12.23,5.7-5.71,12.23,8.16,3.8,5.7-12.23L1802,526l3.8-8.15-12.23-5.7Zm21.19-34.79L1787.85,450a9,9,0,0,0-12,4.35l-30.41,65.23a9,9,0,0,0,4.35,12l48.92,22.82a9,9,0,0,0,12-4.36L1833.51,501Zm-17.91,81-48.92-22.81L1784,458.1l28.54,13.31-9.5,20.38,20.38,9.51Z"/></g></g></g></g><g id="Icons-56" data-name="Icons"><g id="Outlined-56" data-name="Outlined"><g id="Action-56" data-name="Action"><g id="Outlined-_-Action-_-note_add-56" data-name="Outlined-/-Action-/-note_add"><polygon id="Path-56" data-name="Path" class="cls-1" points="1910.65 430.39 2008.49 476.01 1962.87 573.86 1865.03 528.23 1910.65 430.39"/><path id="_-Icon-Color-56" data-name="🔹-Icon-Color" class="cls-2" d="M1942.74,500l-8.16-3.8-5.7,12.23-12.23-5.71-3.8,8.16,12.23,5.7-5.7,12.23,8.15,3.8,5.7-12.23,12.23,5.7,3.8-8.15-12.23-5.7Zm21.18-34.79L1931.31,450a9,9,0,0,0-12,4.35l-30.41,65.23a9,9,0,0,0,4.35,12l48.92,22.82a9,9,0,0,0,12-4.36L1977,501Zm-17.91,81-48.92-22.81,30.42-65.23L1956,471.41l-9.5,20.38,20.38,9.51Z"/></g></g></g></g><g id="Icons-57" data-name="Icons"><g id="Outlined-57" data-name="Outlined"><g id="Action-57" data-name="Action"><g id="Outlined-_-Action-_-note_add-57" data-name="Outlined-/-Action-/-note_add"><polygon id="Path-57" data-name="Path" class="cls-1" points="117.36 573.86 215.19 619.48 169.57 717.32 71.73 671.7 117.36 573.86"/><path id="_-Icon-Color-57" data-name="🔹-Icon-Color" class="cls-2" d="M149.44,643.41l-8.15-3.8-5.71,12.23-12.23-5.7-3.8,8.15,12.23,5.7-5.7,12.23,8.15,3.8,5.71-12.23,12.23,5.71,3.8-8.16-12.23-5.7Zm21.19-34.79L138,593.41a9,9,0,0,0-11.95,4.36L95.64,663A9,9,0,0,0,100,675l48.92,22.81a9,9,0,0,0,12-4.35l22.81-48.92Zm-17.91,81L103.8,666.79l30.41-65.22,28.54,13.3-9.51,20.39,20.39,9.5Z"/></g></g></g></g><g id="Icons-58" data-name="Icons"><g id="Outlined-58" data-name="Outlined"><g id="Action-58" data-name="Action"><g id="Outlined-_-Action-_-note_add-58" data-name="Outlined-/-Action-/-note_add"><polygon id="Path-58" data-name="Path" class="cls-1" points="260.82 573.86 358.66 619.48 313.04 717.32 215.19 671.7 260.82 573.86"/><path id="_-Icon-Color-58" data-name="🔹-Icon-Color" class="cls-2" d="M292.91,643.41l-8.16-3.8-5.7,12.23-12.23-5.7-3.8,8.15,12.23,5.7-5.71,12.23,8.16,3.8,5.7-12.23,12.23,5.71,3.8-8.16-12.23-5.7Zm21.18-34.79-32.61-15.21a9,9,0,0,0-12,4.36L239.11,663a9,9,0,0,0,4.35,12l48.92,22.81a9,9,0,0,0,11.95-4.35l22.81-48.92Zm-17.91,81-48.92-22.82,30.42-65.22,28.53,13.3-9.5,20.39,20.38,9.5Z"/></g></g></g></g><g id="Icons-59" data-name="Icons"><g id="Outlined-59" data-name="Outlined"><g id="Action-59" data-name="Action"><g id="Outlined-_-Action-_-note_add-59" data-name="Outlined-/-Action-/-note_add"><polygon id="Path-59" data-name="Path" class="cls-1" points="404.28 573.86 502.12 619.48 456.5 717.32 358.66 671.7 404.28 573.86"/><path id="_-Icon-Color-59" data-name="🔹-Icon-Color" class="cls-2" d="M436.37,643.41l-8.15-3.8-5.71,12.23-12.23-5.7-3.8,8.15,12.23,5.7L413,672.22l8.15,3.8,5.7-12.23,12.23,5.71,3.81-8.16-12.23-5.7Zm21.18-34.79-32.61-15.21A9,9,0,0,0,413,597.77L382.57,663a9,9,0,0,0,4.35,12l48.92,22.81a9,9,0,0,0,12-4.35l22.81-48.92Zm-17.91,81-48.92-22.82,30.42-65.22,28.54,13.3-9.51,20.39,20.38,9.5Z"/></g></g></g></g><g id="Icons-60" data-name="Icons"><g id="Outlined-60" data-name="Outlined"><g id="Action-60" data-name="Action"><g id="Outlined-_-Action-_-note_add-60" data-name="Outlined-/-Action-/-note_add"><polygon id="Path-60" data-name="Path" class="cls-1" points="547.75 573.86 645.59 619.48 599.96 717.32 502.12 671.7 547.75 573.86"/><path id="_-Icon-Color-60" data-name="🔹-Icon-Color" class="cls-2" d="M579.83,643.41l-8.15-3.8L566,651.84l-12.23-5.7-3.81,8.15,12.23,5.7-5.7,12.23,8.15,3.8,5.71-12.23,12.23,5.71,3.8-8.16-12.23-5.7ZM601,608.62,568.4,593.41a9,9,0,0,0-11.95,4.36L526,663a9,9,0,0,0,4.35,12l48.92,22.81a9,9,0,0,0,12-4.35l22.81-48.92Zm-17.91,81-48.92-22.82,30.41-65.22,28.54,13.3-9.51,20.39,20.39,9.5Z"/></g></g></g></g><g id="Icons-61" data-name="Icons"><g id="Outlined-61" data-name="Outlined"><g id="Action-61" data-name="Action"><g id="Outlined-_-Action-_-note_add-61" data-name="Outlined-/-Action-/-note_add"><polygon id="Path-61" data-name="Path" class="cls-1" points="691.21 573.86 789.05 619.48 743.43 717.32 645.59 671.7 691.21 573.86"/><path id="_-Icon-Color-61" data-name="🔹-Icon-Color" class="cls-2" d="M723.3,643.41l-8.16-3.8-5.7,12.23-12.23-5.7-3.8,8.15,12.23,5.7-5.71,12.23,8.16,3.8,5.7-12.23L726,669.5l3.8-8.16-12.23-5.7Zm21.18-34.79-32.61-15.21a9,9,0,0,0-12,4.36L669.5,663a9,9,0,0,0,4.35,12l48.92,22.81a9,9,0,0,0,12-4.35l22.82-48.92Zm-17.91,81-48.92-22.82,30.42-65.22,28.53,13.3-9.5,20.39,20.38,9.5Z"/></g></g></g></g><g id="Icons-62" data-name="Icons"><g id="Outlined-62" data-name="Outlined"><g id="Action-62" data-name="Action"><g id="Outlined-_-Action-_-note_add-62" data-name="Outlined-/-Action-/-note_add"><polygon id="Path-62" data-name="Path" class="cls-1" points="834.67 573.86 932.51 619.48 886.89 717.32 789.05 671.7 834.67 573.86"/><path id="_-Icon-Color-62" data-name="🔹-Icon-Color" class="cls-2" d="M866.76,643.41l-8.15-3.8-5.71,12.23-12.23-5.7-3.8,8.15L849.1,660l-5.7,12.23,8.15,3.8,5.7-12.23,12.23,5.71,3.81-8.16-12.23-5.7ZM888,608.62l-32.62-15.21a9,9,0,0,0-12,4.36L813,663a9,9,0,0,0,4.35,12l48.92,22.81a9,9,0,0,0,12-4.35L901,644.49Zm-17.92,81-48.92-22.82,30.42-65.22,28.54,13.3-9.51,20.39,20.39,9.5Z"/></g></g></g></g><g id="Icons-63" data-name="Icons"><g id="Outlined-63" data-name="Outlined"><g id="Action-63" data-name="Action"><g id="Outlined-_-Action-_-note_add-63" data-name="Outlined-/-Action-/-note_add"><polygon id="Path-63" data-name="Path" class="cls-1" points="978.14 573.86 1075.98 619.48 1030.35 717.32 932.51 671.7 978.14 573.86"/><path id="_-Icon-Color-63" data-name="🔹-Icon-Color" class="cls-2" d="M1010.22,643.41l-8.15-3.8-5.7,12.23-12.23-5.7-3.8,8.15,12.23,5.7-5.71,12.23L995,676l5.7-12.23L1013,669.5l3.8-8.16-12.23-5.7Zm21.19-34.79L998.8,593.41a9,9,0,0,0-12,4.36L956.42,663a9,9,0,0,0,4.36,12l48.92,22.81a9,9,0,0,0,11.95-4.35l22.81-48.92Zm-17.91,81-48.92-22.82L995,601.57l28.54,13.3-9.5,20.39,20.38,9.5Z"/></g></g></g></g><g id="Icons-64" data-name="Icons"><g id="Outlined-64" data-name="Outlined"><g id="Action-64" data-name="Action"><g id="Outlined-_-Action-_-note_add-64" data-name="Outlined-/-Action-/-note_add"><polygon id="Path-64" data-name="Path" class="cls-1" points="1121.6 573.86 1219.44 619.48 1173.82 717.32 1075.98 671.7 1121.6 573.86"/><path id="_-Icon-Color-64" data-name="🔹-Icon-Color" class="cls-2" d="M1153.69,643.41l-8.16-3.8-5.7,12.23-12.23-5.7-3.8,8.15L1136,660l-5.7,12.23,8.15,3.8,5.7-12.23,12.23,5.71,3.8-8.16-12.23-5.7Zm21.18-34.79-32.61-15.21a9,9,0,0,0-12,4.36L1099.89,663a9,9,0,0,0,4.35,12l48.92,22.81a9,9,0,0,0,12-4.35l22.81-48.92Zm-17.91,81L1108,666.79l30.42-65.22,28.53,13.3-9.5,20.39,20.38,9.5Z"/></g></g></g></g><g id="Icons-65" data-name="Icons"><g id="Outlined-65" data-name="Outlined"><g id="Action-65" data-name="Action"><g id="Outlined-_-Action-_-note_add-65" data-name="Outlined-/-Action-/-note_add"><polygon id="Path-65" data-name="Path" class="cls-1" points="1265.07 573.86 1362.9 619.48 1317.28 717.32 1219.44 671.7 1265.07 573.86"/><path id="_-Icon-Color-65" data-name="🔹-Icon-Color" class="cls-2" d="M1297.15,643.41l-8.15-3.8-5.71,12.23-12.23-5.7-3.8,8.15,12.23,5.7-5.7,12.23,8.15,3.8,5.71-12.23,12.23,5.71,3.8-8.16-12.23-5.7Zm21.19-34.79-32.62-15.21a9,9,0,0,0-12,4.36L1243.35,663a9,9,0,0,0,4.35,12l48.92,22.81a9,9,0,0,0,12-4.35l22.81-48.92Zm-17.91,81-48.92-22.82,30.41-65.22,28.54,13.3L1301,635.26l20.39,9.5Z"/></g></g></g></g><g id="Icons-66" data-name="Icons"><g id="Outlined-66" data-name="Outlined"><g id="Action-66" data-name="Action"><g id="Outlined-_-Action-_-note_add-66" data-name="Outlined-/-Action-/-note_add"><polygon id="Path-66" data-name="Path" class="cls-1" points="1408.53 573.86 1506.37 619.48 1460.74 717.32 1362.9 671.7 1408.53 573.86"/><path id="_-Icon-Color-66" data-name="🔹-Icon-Color" class="cls-2" d="M1440.61,643.41l-8.15-3.8-5.7,12.23-12.23-5.7-3.8,8.15L1423,660l-5.71,12.23,8.16,3.8,5.7-12.23,12.23,5.71,3.8-8.16-12.23-5.7Zm21.19-34.79-32.61-15.21a9,9,0,0,0-12,4.36L1386.82,663a9,9,0,0,0,4.35,12l48.92,22.81a9,9,0,0,0,12-4.35l22.81-48.92Zm-17.91,81L1395,666.79l30.42-65.22,28.53,13.3-9.5,20.39,20.38,9.5Z"/></g></g></g></g><g id="Icons-67" data-name="Icons"><g id="Outlined-67" data-name="Outlined"><g id="Action-67" data-name="Action"><g id="Outlined-_-Action-_-note_add-67" data-name="Outlined-/-Action-/-note_add"><polygon id="Path-67" data-name="Path" class="cls-1" points="1551.99 573.86 1649.83 619.48 1604.21 717.32 1506.37 671.7 1551.99 573.86"/><path id="_-Icon-Color-67" data-name="🔹-Icon-Color" class="cls-2" d="M1584.08,643.41l-8.15-3.8-5.71,12.23-12.23-5.7-3.8,8.15,12.23,5.7-5.7,12.23,8.15,3.8,5.7-12.23,12.23,5.71,3.81-8.16-12.23-5.7Zm21.18-34.79-32.61-15.21a9,9,0,0,0-12,4.36L1530.28,663a9,9,0,0,0,4.35,12l48.92,22.81a9,9,0,0,0,12-4.35l22.81-48.92Zm-17.91,81-48.92-22.82,30.42-65.22,28.54,13.3-9.51,20.39,20.38,9.5Z"/></g></g></g></g><g id="Icons-68" data-name="Icons"><g id="Outlined-68" data-name="Outlined"><g id="Action-68" data-name="Action"><g id="Outlined-_-Action-_-note_add-68" data-name="Outlined-/-Action-/-note_add"><polygon id="Path-68" data-name="Path" class="cls-1" points="1695.46 573.86 1793.3 619.48 1747.67 717.32 1649.83 671.7 1695.46 573.86"/><path id="_-Icon-Color-68" data-name="🔹-Icon-Color" class="cls-2" d="M1727.54,643.41l-8.15-3.8-5.7,12.23-12.23-5.7-3.81,8.15,12.23,5.7-5.7,12.23,8.15,3.8,5.71-12.23,12.23,5.71,3.8-8.16-12.23-5.7Zm21.19-34.79-32.62-15.21a9,9,0,0,0-11.95,4.36L1673.74,663a9,9,0,0,0,4.35,12L1727,697.76a9,9,0,0,0,12-4.35l22.81-48.92Zm-17.91,81-48.92-22.82,30.41-65.22,28.54,13.3-9.51,20.39,20.39,9.5Z"/></g></g></g></g><g id="Icons-69" data-name="Icons"><g id="Outlined-69" data-name="Outlined"><g id="Action-69" data-name="Action"><g id="Outlined-_-Action-_-note_add-69" data-name="Outlined-/-Action-/-note_add"><polygon id="Path-69" data-name="Path" class="cls-1" points="1838.92 573.86 1936.76 619.48 1891.14 717.32 1793.3 671.7 1838.92 573.86"/><path id="_-Icon-Color-69" data-name="🔹-Icon-Color" class="cls-2" d="M1871,643.41l-8.16-3.8-5.7,12.23-12.23-5.7-3.8,8.15,12.23,5.7-5.71,12.23,8.16,3.8,5.7-12.23,12.23,5.71,3.8-8.16-12.23-5.7Zm21.18-34.79-32.61-15.21a9,9,0,0,0-12,4.36L1817.21,663a9,9,0,0,0,4.35,12l48.92,22.81a9,9,0,0,0,12-4.35l22.82-48.92Zm-17.91,81-48.92-22.82,30.42-65.22,28.53,13.3-9.5,20.39,20.38,9.5Z"/></g></g></g></g><g id="Icons-70" data-name="Icons"><g id="Outlined-70" data-name="Outlined"><g id="Action-70" data-name="Action"><g id="Outlined-_-Action-_-note_add-70" data-name="Outlined-/-Action-/-note_add"><polygon id="Path-70" data-name="Path" class="cls-1" points="1982.38 573.86 2080.22 619.48 2034.6 717.32 1936.76 671.7 1982.38 573.86"/><path id="_-Icon-Color-70" data-name="🔹-Icon-Color" class="cls-2" d="M2014.47,643.41l-8.15-3.8-5.71,12.23-12.23-5.7-3.8,8.15,12.23,5.7-5.7,12.23,8.15,3.8,5.7-12.23,12.23,5.71,3.81-8.16-12.23-5.7Zm21.19-34.79L2003,593.41a9,9,0,0,0-12,4.36L1960.67,663a9,9,0,0,0,4.35,12l48.92,22.81a9,9,0,0,0,12-4.35l22.81-48.92Zm-17.92,81-48.92-22.82,30.42-65.22,28.54,13.3-9.51,20.39,20.38,9.5Z"/></g></g></g></g><g id="Icons-71" data-name="Icons"><g id="Outlined-71" data-name="Outlined"><g id="Action-71" data-name="Action"><g id="Outlined-_-Action-_-note_add-71" data-name="Outlined-/-Action-/-note_add"><polygon id="Path-71" data-name="Path" class="cls-1" points="117.36 860.78 215.19 906.41 169.57 1004.25 71.73 958.62 117.36 860.78"/><path id="_-Icon-Color-71" data-name="🔹-Icon-Color" class="cls-2" d="M149.44,930.34l-8.15-3.8-5.71,12.23-12.23-5.71-3.8,8.16,12.23,5.7-5.7,12.23,8.15,3.8,5.71-12.23,12.23,5.7,3.8-8.15-12.23-5.7Zm21.19-34.79L138,880.34a9,9,0,0,0-11.95,4.35L95.64,949.92a9,9,0,0,0,4.35,12l48.92,22.82a9,9,0,0,0,12-4.35l22.81-48.92Zm-17.91,81L103.8,953.72l30.41-65.22,28.54,13.3-9.51,20.39,20.39,9.5Z"/></g></g></g></g><g id="Icons-72" data-name="Icons"><g id="Outlined-72" data-name="Outlined"><g id="Action-72" data-name="Action"><g id="Outlined-_-Action-_-note_add-72" data-name="Outlined-/-Action-/-note_add"><polygon id="Path-72" data-name="Path" class="cls-1" points="260.82 860.78 358.66 906.41 313.04 1004.25 215.19 958.62 260.82 860.78"/><path id="_-Icon-Color-72" data-name="🔹-Icon-Color" class="cls-2" d="M292.91,930.34l-8.16-3.8-5.7,12.23-12.23-5.71-3.8,8.16,12.23,5.7-5.71,12.23,8.16,3.8,5.7-12.23,12.23,5.7,3.8-8.15-12.23-5.7Zm21.18-34.79-32.61-15.21a9,9,0,0,0-12,4.35l-30.41,65.23a9,9,0,0,0,4.35,12l48.92,22.82a9,9,0,0,0,11.95-4.35l22.81-48.92Zm-17.91,81-48.92-22.81,30.42-65.22,28.53,13.3-9.5,20.39,20.38,9.5Z"/></g></g></g></g><g id="Icons-73" data-name="Icons"><g id="Outlined-73" data-name="Outlined"><g id="Action-73" data-name="Action"><g id="Outlined-_-Action-_-note_add-73" data-name="Outlined-/-Action-/-note_add"><polygon id="Path-73" data-name="Path" class="cls-1" points="404.28 860.78 502.12 906.41 456.5 1004.25 358.66 958.62 404.28 860.78"/><path id="_-Icon-Color-73" data-name="🔹-Icon-Color" class="cls-2" d="M436.37,930.34l-8.15-3.8-5.71,12.23-12.23-5.71-3.8,8.16,12.23,5.7L413,959.15l8.15,3.8,5.7-12.23,12.23,5.7,3.81-8.15-12.23-5.7Zm21.18-34.79-32.61-15.21A9,9,0,0,0,413,884.69l-30.42,65.23a9,9,0,0,0,4.35,12l48.92,22.82a9,9,0,0,0,12-4.35l22.81-48.92Zm-17.91,81-48.92-22.81,30.42-65.22,28.54,13.3-9.51,20.39,20.38,9.5Z"/></g></g></g></g><g id="Icons-74" data-name="Icons"><g id="Outlined-74" data-name="Outlined"><g id="Action-74" data-name="Action"><g id="Outlined-_-Action-_-note_add-74" data-name="Outlined-/-Action-/-note_add"><polygon id="Path-74" data-name="Path" class="cls-1" points="547.75 860.78 645.59 906.41 599.96 1004.25 502.12 958.62 547.75 860.78"/><path id="_-Icon-Color-74" data-name="🔹-Icon-Color" class="cls-2" d="M579.83,930.34l-8.15-3.8L566,938.77l-12.23-5.71-3.81,8.16,12.23,5.7-5.7,12.23,8.15,3.8,5.71-12.23,12.23,5.7,3.8-8.15-12.23-5.7ZM601,895.55,568.4,880.34a9,9,0,0,0-11.95,4.35L526,949.92a9,9,0,0,0,4.35,12l48.92,22.82a9,9,0,0,0,12-4.35l22.81-48.92Zm-17.91,81-48.92-22.81L564.6,888.5l28.54,13.3-9.51,20.39,20.39,9.5Z"/></g></g></g></g><g id="Icons-75" data-name="Icons"><g id="Outlined-75" data-name="Outlined"><g id="Action-75" data-name="Action"><g id="Outlined-_-Action-_-note_add-75" data-name="Outlined-/-Action-/-note_add"><polygon id="Path-75" data-name="Path" class="cls-1" points="691.21 860.78 789.05 906.41 743.43 1004.25 645.59 958.62 691.21 860.78"/><path id="_-Icon-Color-75" data-name="🔹-Icon-Color" class="cls-2" d="M723.3,930.34l-8.16-3.8-5.7,12.23-12.23-5.71-3.8,8.16,12.23,5.7-5.71,12.23,8.16,3.8,5.7-12.23,12.23,5.7,3.8-8.15-12.23-5.7Zm21.18-34.79-32.61-15.21a9,9,0,0,0-12,4.35L669.5,949.92a9,9,0,0,0,4.35,12l48.92,22.82a9,9,0,0,0,12-4.35l22.82-48.92Zm-17.91,81-48.92-22.81,30.42-65.22,28.53,13.3-9.5,20.39,20.38,9.5Z"/></g></g></g></g><g id="Icons-76" data-name="Icons"><g id="Outlined-76" data-name="Outlined"><g id="Action-76" data-name="Action"><g id="Outlined-_-Action-_-note_add-76" data-name="Outlined-/-Action-/-note_add"><polygon id="Path-76" data-name="Path" class="cls-1" points="834.67 860.78 932.51 906.41 886.89 1004.25 789.05 958.62 834.67 860.78"/><path id="_-Icon-Color-76" data-name="🔹-Icon-Color" class="cls-2" d="M866.76,930.34l-8.15-3.8-5.71,12.23-12.23-5.71-3.8,8.16,12.23,5.7-5.7,12.23,8.15,3.8,5.7-12.23,12.23,5.7,3.81-8.15-12.23-5.7ZM888,895.55l-32.62-15.21a9,9,0,0,0-12,4.35L813,949.92a9,9,0,0,0,4.35,12l48.92,22.82a9,9,0,0,0,12-4.35L901,931.42Zm-17.92,81-48.92-22.81,30.42-65.22,28.54,13.3-9.51,20.39,20.39,9.5Z"/></g></g></g></g><g id="Icons-77" data-name="Icons"><g id="Outlined-77" data-name="Outlined"><g id="Action-77" data-name="Action"><g id="Outlined-_-Action-_-note_add-77" data-name="Outlined-/-Action-/-note_add"><polygon id="Path-77" data-name="Path" class="cls-1" points="978.14 860.78 1075.98 906.41 1030.35 1004.25 932.51 958.62 978.14 860.78"/><path id="_-Icon-Color-77" data-name="🔹-Icon-Color" class="cls-2" d="M1010.22,930.34l-8.15-3.8-5.7,12.23-12.23-5.71-3.8,8.16,12.23,5.7-5.71,12.23L995,963l5.7-12.23,12.23,5.7,3.8-8.15-12.23-5.7Zm21.19-34.79L998.8,880.34a9,9,0,0,0-12,4.35l-30.42,65.23a9,9,0,0,0,4.36,12l48.92,22.82a9,9,0,0,0,11.95-4.35l22.81-48.92Zm-17.91,81-48.92-22.81L995,888.5l28.54,13.3-9.5,20.39,20.38,9.5Z"/></g></g></g></g><g id="Icons-78" data-name="Icons"><g id="Outlined-78" data-name="Outlined"><g id="Action-78" data-name="Action"><g id="Outlined-_-Action-_-note_add-78" data-name="Outlined-/-Action-/-note_add"><polygon id="Path-78" data-name="Path" class="cls-1" points="1121.6 860.78 1219.44 906.41 1173.82 1004.25 1075.98 958.62 1121.6 860.78"/><path id="_-Icon-Color-78" data-name="🔹-Icon-Color" class="cls-2" d="M1153.69,930.34l-8.16-3.8-5.7,12.23-12.23-5.71-3.8,8.16,12.23,5.7-5.7,12.23,8.15,3.8,5.7-12.23,12.23,5.7,3.8-8.15-12.23-5.7Zm21.18-34.79-32.61-15.21a9,9,0,0,0-12,4.35l-30.41,65.23a9,9,0,0,0,4.35,12l48.92,22.82a9,9,0,0,0,12-4.35l22.81-48.92Zm-17.91,81L1108,953.72l30.42-65.22L1167,901.8l-9.5,20.39,20.38,9.5Z"/></g></g></g></g><g id="Icons-79" data-name="Icons"><g id="Outlined-79" data-name="Outlined"><g id="Action-79" data-name="Action"><g id="Outlined-_-Action-_-note_add-79" data-name="Outlined-/-Action-/-note_add"><polygon id="Path-79" data-name="Path" class="cls-1" points="1265.07 860.78 1362.9 906.41 1317.28 1004.25 1219.44 958.62 1265.07 860.78"/><path id="_-Icon-Color-79" data-name="🔹-Icon-Color" class="cls-2" d="M1297.15,930.34l-8.15-3.8-5.71,12.23-12.23-5.71-3.8,8.16,12.23,5.7-5.7,12.23,8.15,3.8,5.71-12.23,12.23,5.7,3.8-8.15-12.23-5.7Zm21.19-34.79-32.62-15.21a9,9,0,0,0-12,4.35l-30.42,65.23a9,9,0,0,0,4.35,12l48.92,22.82a9,9,0,0,0,12-4.35l22.81-48.92Zm-17.91,81-48.92-22.81,30.41-65.22,28.54,13.3L1301,922.19l20.39,9.5Z"/></g></g></g></g><g id="Icons-80" data-name="Icons"><g id="Outlined-80" data-name="Outlined"><g id="Action-80" data-name="Action"><g id="Outlined-_-Action-_-note_add-80" data-name="Outlined-/-Action-/-note_add"><polygon id="Path-80" data-name="Path" class="cls-1" points="1408.53 860.78 1506.37 906.41 1460.74 1004.25 1362.9 958.62 1408.53 860.78"/><path id="_-Icon-Color-80" data-name="🔹-Icon-Color" class="cls-2" d="M1440.61,930.34l-8.15-3.8-5.7,12.23-12.23-5.71-3.8,8.16,12.23,5.7-5.71,12.23,8.16,3.8,5.7-12.23,12.23,5.7,3.8-8.15-12.23-5.7Zm21.19-34.79-32.61-15.21a9,9,0,0,0-12,4.35l-30.41,65.23a9,9,0,0,0,4.35,12l48.92,22.82a9,9,0,0,0,12-4.35l22.81-48.92Zm-17.91,81L1395,953.72l30.42-65.22,28.53,13.3-9.5,20.39,20.38,9.5Z"/></g></g></g></g><g id="Icons-81" data-name="Icons"><g id="Outlined-81" data-name="Outlined"><g id="Action-81" data-name="Action"><g id="Outlined-_-Action-_-note_add-81" data-name="Outlined-/-Action-/-note_add"><polygon id="Path-81" data-name="Path" class="cls-1" points="1551.99 860.78 1649.83 906.41 1604.21 1004.25 1506.37 958.62 1551.99 860.78"/><path id="_-Icon-Color-81" data-name="🔹-Icon-Color" class="cls-2" d="M1584.08,930.34l-8.15-3.8-5.71,12.23L1558,933.06l-3.8,8.16,12.23,5.7-5.7,12.23,8.15,3.8,5.7-12.23,12.23,5.7,3.81-8.15-12.23-5.7Zm21.18-34.79-32.61-15.21a9,9,0,0,0-12,4.35l-30.42,65.23a9,9,0,0,0,4.35,12l48.92,22.82a9,9,0,0,0,12-4.35l22.81-48.92Zm-17.91,81-48.92-22.81,30.42-65.22,28.54,13.3-9.51,20.39,20.38,9.5Z"/></g></g></g></g><g id="Icons-82" data-name="Icons"><g id="Outlined-82" data-name="Outlined"><g id="Action-82" data-name="Action"><g id="Outlined-_-Action-_-note_add-82" data-name="Outlined-/-Action-/-note_add"><polygon id="Path-82" data-name="Path" class="cls-1" points="1695.46 860.78 1793.3 906.41 1747.67 1004.25 1649.83 958.62 1695.46 860.78"/><path id="_-Icon-Color-82" data-name="🔹-Icon-Color" class="cls-2" d="M1727.54,930.34l-8.15-3.8-5.7,12.23-12.23-5.71-3.81,8.16,12.23,5.7-5.7,12.23,8.15,3.8,5.71-12.23,12.23,5.7,3.8-8.15-12.23-5.7Zm21.19-34.79-32.62-15.21a9,9,0,0,0-11.95,4.35l-30.42,65.23a9,9,0,0,0,4.35,12L1727,984.69a9,9,0,0,0,12-4.35l22.81-48.92Zm-17.91,81-48.92-22.81,30.41-65.22,28.54,13.3-9.51,20.39,20.39,9.5Z"/></g></g></g></g><g id="Icons-83" data-name="Icons"><g id="Outlined-83" data-name="Outlined"><g id="Action-83" data-name="Action"><g id="Outlined-_-Action-_-note_add-83" data-name="Outlined-/-Action-/-note_add"><polygon id="Path-83" data-name="Path" class="cls-1" points="1838.92 860.78 1936.76 906.41 1891.14 1004.25 1793.3 958.62 1838.92 860.78"/><path id="_-Icon-Color-83" data-name="🔹-Icon-Color" class="cls-2" d="M1871,930.34l-8.16-3.8-5.7,12.23-12.23-5.71-3.8,8.16,12.23,5.7-5.71,12.23,8.16,3.8,5.7-12.23,12.23,5.7,3.8-8.15-12.23-5.7Zm21.18-34.79-32.61-15.21a9,9,0,0,0-12,4.35l-30.41,65.23a9,9,0,0,0,4.35,12l48.92,22.82a9,9,0,0,0,12-4.35l22.82-48.92Zm-17.91,81-48.92-22.81,30.42-65.22,28.53,13.3-9.5,20.39,20.38,9.5Z"/></g></g></g></g><g id="Icons-84" data-name="Icons"><g id="Outlined-84" data-name="Outlined"><g id="Action-84" data-name="Action"><g id="Outlined-_-Action-_-note_add-84" data-name="Outlined-/-Action-/-note_add"><polygon id="Path-84" data-name="Path" class="cls-1" points="1982.38 860.78 2080.22 906.41 2034.6 1004.25 1936.76 958.62 1982.38 860.78"/><path id="_-Icon-Color-84" data-name="🔹-Icon-Color" class="cls-2" d="M2014.47,930.34l-8.15-3.8-5.71,12.23-12.23-5.71-3.8,8.16,12.23,5.7-5.7,12.23,8.15,3.8,5.7-12.23,12.23,5.7,3.81-8.15-12.23-5.7Zm21.19-34.79L2003,880.34a9,9,0,0,0-12,4.35l-30.42,65.23a9,9,0,0,0,4.35,12l48.92,22.82a9,9,0,0,0,12-4.35l22.81-48.92Zm-17.92,81-48.92-22.81,30.42-65.22,28.54,13.3-9.51,20.39,20.38,9.5Z"/></g></g></g></g><g id="Icons-85" data-name="Icons"><g id="Outlined-85" data-name="Outlined"><g id="Action-85" data-name="Action"><g id="Outlined-_-Action-_-note_add-85" data-name="Outlined-/-Action-/-note_add"><polygon id="Path-85" data-name="Path" class="cls-1" points="45.62 717.32 143.46 762.94 97.84 860.78 0 815.16 45.62 717.32"/><path id="_-Icon-Color-85" data-name="🔹-Icon-Color" class="cls-2" d="M77.71,786.87l-8.15-3.8L63.85,795.3l-12.23-5.7-3.8,8.15,12.23,5.71-5.7,12.23,8.15,3.8,5.7-12.23L80.43,813l3.81-8.15L72,799.1ZM98.9,752.09,66.28,736.88a9,9,0,0,0-12,4.35L23.91,806.46a9,9,0,0,0,4.35,11.95l48.92,22.81a9,9,0,0,0,12-4.35L112,788ZM81,833.07,32.06,810.26,62.48,745,91,758.34l-9.51,20.38,20.38,9.51Z"/></g></g></g></g><g id="Icons-86" data-name="Icons"><g id="Outlined-86" data-name="Outlined"><g id="Action-86" data-name="Action"><g id="Outlined-_-Action-_-note_add-86" data-name="Outlined-/-Action-/-note_add"><polygon id="Path-86" data-name="Path" class="cls-1" points="189.09 717.32 286.93 762.94 241.3 860.78 143.46 815.16 189.09 717.32"/><path id="_-Icon-Color-86" data-name="🔹-Icon-Color" class="cls-2" d="M221.17,786.87l-8.15-3.8-5.7,12.23-12.23-5.7-3.81,8.15,12.23,5.71-5.7,12.23,8.16,3.8,5.7-12.23L223.9,813l3.8-8.15-12.23-5.71Zm21.19-34.78-32.61-15.21a9,9,0,0,0-12,4.35l-30.42,65.23a9,9,0,0,0,4.36,11.95l48.92,22.81a9,9,0,0,0,11.95-4.35L255.41,788Zm-17.91,81-48.92-22.81L205.94,745l28.54,13.31L225,778.72l20.38,9.51Z"/></g></g></g></g><g id="Icons-87" data-name="Icons"><g id="Outlined-87" data-name="Outlined"><g id="Action-87" data-name="Action"><g id="Outlined-_-Action-_-note_add-87" data-name="Outlined-/-Action-/-note_add"><polygon id="Path-87" data-name="Path" class="cls-1" points="332.55 717.32 430.39 762.94 384.77 860.78 286.93 815.16 332.55 717.32"/><path id="_-Icon-Color-87" data-name="🔹-Icon-Color" class="cls-2" d="M364.64,786.87l-8.16-3.8-5.7,12.23-12.23-5.7-3.8,8.15L347,803.46l-5.7,12.23,8.15,3.8,5.7-12.23,12.23,5.7,3.8-8.15-12.23-5.71Zm21.18-34.78-32.61-15.21a9,9,0,0,0-12,4.35l-30.41,65.23a9,9,0,0,0,4.35,11.95l48.92,22.81a9,9,0,0,0,11.95-4.35L398.88,788Zm-17.91,81L319,810.26,349.41,745l28.53,13.31-9.5,20.38,20.38,9.51Z"/></g></g></g></g><g id="Icons-88" data-name="Icons"><g id="Outlined-88" data-name="Outlined"><g id="Action-88" data-name="Action"><g id="Outlined-_-Action-_-note_add-88" data-name="Outlined-/-Action-/-note_add"><polygon id="Path-88" data-name="Path" class="cls-1" points="476.01 717.32 573.86 762.94 528.23 860.78 430.39 815.16 476.01 717.32"/><path id="_-Icon-Color-88" data-name="🔹-Icon-Color" class="cls-2" d="M508.1,786.87l-8.15-3.8-5.71,12.23L482,789.6l-3.8,8.15,12.23,5.71-5.7,12.23,8.15,3.8,5.71-12.23,12.23,5.7,3.8-8.15L502.4,799.1Zm21.19-34.78-32.62-15.21a9,9,0,0,0-11.95,4.35L454.3,806.46a9,9,0,0,0,4.35,11.95l48.92,22.81a9,9,0,0,0,12-4.35L542.34,788Zm-17.91,81-48.92-22.81L492.87,745l28.54,13.31-9.51,20.38,20.39,9.51Z"/></g></g></g></g><g id="Icons-89" data-name="Icons"><g id="Outlined-89" data-name="Outlined"><g id="Action-89" data-name="Action"><g id="Outlined-_-Action-_-note_add-89" data-name="Outlined-/-Action-/-note_add"><polygon id="Path-89" data-name="Path" class="cls-1" points="619.48 717.32 717.32 762.94 671.7 860.78 573.86 815.16 619.48 717.32"/><path id="_-Icon-Color-89" data-name="🔹-Icon-Color" class="cls-2" d="M651.56,786.87l-8.15-3.8-5.7,12.23-12.23-5.7-3.8,8.15,12.23,5.71-5.71,12.23,8.16,3.8,5.7-12.23,12.23,5.7,3.8-8.15-12.23-5.71Zm21.19-34.78-32.61-15.21a9,9,0,0,0-12,4.35l-30.41,65.23a9,9,0,0,0,4.35,11.95L651,841.22a9,9,0,0,0,12-4.35L685.8,788Zm-17.91,81-48.92-22.81L636.33,745l28.54,13.31-9.5,20.38,20.38,9.51Z"/></g></g></g></g><g id="Icons-90" data-name="Icons"><g id="Outlined-90" data-name="Outlined"><g id="Action-90" data-name="Action"><g id="Outlined-_-Action-_-note_add-90" data-name="Outlined-/-Action-/-note_add"><polygon id="Path-90" data-name="Path" class="cls-1" points="762.94 717.32 860.78 762.94 815.16 860.78 717.32 815.16 762.94 717.32"/><path id="_-Icon-Color-90" data-name="🔹-Icon-Color" class="cls-2" d="M795,786.87l-8.16-3.8-5.7,12.23-12.23-5.7-3.8,8.15,12.23,5.71-5.7,12.23,8.15,3.8,5.7-12.23,12.23,5.7,3.81-8.15-12.23-5.71Zm21.18-34.78L783.6,736.88a9,9,0,0,0-12,4.35l-30.42,65.23a9,9,0,0,0,4.35,11.95l48.92,22.81a9,9,0,0,0,12-4.35L829.27,788Zm-17.91,81-48.92-22.81L779.8,745l28.54,13.31-9.51,20.38,20.38,9.51Z"/></g></g></g></g><g id="Icons-91" data-name="Icons"><g id="Outlined-91" data-name="Outlined"><g id="Action-91" data-name="Action"><g id="Outlined-_-Action-_-note_add-91" data-name="Outlined-/-Action-/-note_add"><polygon id="Path-91" data-name="Path" class="cls-1" points="906.41 717.32 1004.25 762.94 958.62 860.78 860.78 815.16 906.41 717.32"/><path id="_-Icon-Color-91" data-name="🔹-Icon-Color" class="cls-2" d="M938.49,786.87l-8.15-3.8-5.7,12.23-12.23-5.7-3.81,8.15,12.23,5.71-5.7,12.23,8.15,3.8L929,807.26l12.23,5.7,3.8-8.15-12.23-5.71Zm21.19-34.78-32.62-15.21a9,9,0,0,0-11.95,4.35l-30.42,65.23A9,9,0,0,0,889,818.41L938,841.22a9,9,0,0,0,12-4.35L972.73,788Zm-17.91,81-48.92-22.81L923.26,745l28.54,13.31-9.51,20.38,20.39,9.51Z"/></g></g></g></g><g id="Icons-92" data-name="Icons"><g id="Outlined-92" data-name="Outlined"><g id="Action-92" data-name="Action"><g id="Outlined-_-Action-_-note_add-92" data-name="Outlined-/-Action-/-note_add"><polygon id="Path-92" data-name="Path" class="cls-1" points="1049.87 717.32 1147.71 762.94 1102.09 860.78 1004.25 815.16 1049.87 717.32"/><path id="_-Icon-Color-92" data-name="🔹-Icon-Color" class="cls-2" d="M1082,786.87l-8.16-3.8-5.7,12.23-12.23-5.7-3.8,8.15,12.23,5.71-5.71,12.23,8.16,3.8,5.7-12.23,12.23,5.7,3.8-8.15-12.23-5.71Zm21.18-34.78-32.61-15.21a9,9,0,0,0-12,4.35l-30.41,65.23a9,9,0,0,0,4.35,11.95l48.92,22.81a9,9,0,0,0,12-4.35L1116.2,788Zm-17.91,81-48.92-22.81L1066.73,745l28.53,13.31-9.5,20.38,20.38,9.51Z"/></g></g></g></g><g id="Icons-93" data-name="Icons"><g id="Outlined-93" data-name="Outlined"><g id="Action-93" data-name="Action"><g id="Outlined-_-Action-_-note_add-93" data-name="Outlined-/-Action-/-note_add"><polygon id="Path-93" data-name="Path" class="cls-1" points="1193.33 717.32 1291.17 762.94 1245.55 860.78 1147.71 815.16 1193.33 717.32"/><path id="_-Icon-Color-93" data-name="🔹-Icon-Color" class="cls-2" d="M1225.42,786.87l-8.15-3.8-5.71,12.23-12.23-5.7-3.8,8.15,12.23,5.71-5.7,12.23,8.15,3.8,5.7-12.23,12.23,5.7,3.81-8.15-12.23-5.71Zm21.18-34.78L1214,736.88a9,9,0,0,0-12,4.35l-30.42,65.23a9,9,0,0,0,4.35,11.95l48.92,22.81a9,9,0,0,0,12-4.35L1259.66,788Zm-17.91,81-48.92-22.81L1210.19,745l28.54,13.31-9.51,20.38,20.38,9.51Z"/></g></g></g></g><g id="Icons-94" data-name="Icons"><g id="Outlined-94" data-name="Outlined"><g id="Action-94" data-name="Action"><g id="Outlined-_-Action-_-note_add-94" data-name="Outlined-/-Action-/-note_add"><polygon id="Path-94" data-name="Path" class="cls-1" points="1336.8 717.32 1434.64 762.94 1389.01 860.78 1291.17 815.16 1336.8 717.32"/><path id="_-Icon-Color-94" data-name="🔹-Icon-Color" class="cls-2" d="M1368.88,786.87l-8.15-3.8L1355,795.3l-12.23-5.7-3.81,8.15,12.23,5.71-5.7,12.23,8.16,3.8,5.7-12.23,12.23,5.7,3.8-8.15-12.23-5.71Zm21.19-34.78-32.61-15.21a9,9,0,0,0-12,4.35l-30.42,65.23a9,9,0,0,0,4.36,11.95l48.92,22.81a9,9,0,0,0,12-4.35L1403.12,788Zm-17.91,81-48.92-22.81L1353.65,745l28.54,13.31-9.5,20.38,20.38,9.51Z"/></g></g></g></g><g id="Icons-95" data-name="Icons"><g id="Outlined-95" data-name="Outlined"><g id="Action-95" data-name="Action"><g id="Outlined-_-Action-_-note_add-95" data-name="Outlined-/-Action-/-note_add"><polygon id="Path-95" data-name="Path" class="cls-1" points="1480.26 717.32 1578.1 762.94 1532.48 860.78 1434.64 815.16 1480.26 717.32"/><path id="_-Icon-Color-95" data-name="🔹-Icon-Color" class="cls-2" d="M1512.35,786.87l-8.16-3.8-5.7,12.23-12.23-5.7-3.8,8.15,12.23,5.71-5.7,12.23,8.15,3.8,5.7-12.23,12.23,5.7,3.8-8.15-12.23-5.71Zm21.18-34.78-32.61-15.21a9,9,0,0,0-12,4.35l-30.41,65.23a9,9,0,0,0,4.35,11.95l48.92,22.81a9,9,0,0,0,12-4.35L1546.59,788Zm-17.91,81-48.92-22.81L1497.12,745l28.53,13.31-9.5,20.38,20.38,9.51Z"/></g></g></g></g><g id="Icons-96" data-name="Icons"><g id="Outlined-96" data-name="Outlined"><g id="Action-96" data-name="Action"><g id="Outlined-_-Action-_-note_add-96" data-name="Outlined-/-Action-/-note_add"><polygon id="Path-96" data-name="Path" class="cls-1" points="1623.72 717.32 1721.57 762.94 1675.94 860.78 1578.1 815.16 1623.72 717.32"/><path id="_-Icon-Color-96" data-name="🔹-Icon-Color" class="cls-2" d="M1655.81,786.87l-8.15-3.8L1642,795.3l-12.23-5.7-3.8,8.15,12.23,5.71-5.7,12.23,8.15,3.8,5.71-12.23,12.23,5.7,3.8-8.15-12.23-5.71ZM1677,752.09l-32.62-15.21a9,9,0,0,0-12,4.35L1602,806.46a9,9,0,0,0,4.35,11.95l48.92,22.81a9,9,0,0,0,12-4.35L1690.05,788Zm-17.92,81-48.92-22.81L1640.58,745l28.54,13.31-9.51,20.38,20.39,9.51Z"/></g></g></g></g><g id="Icons-97" data-name="Icons"><g id="Outlined-97" data-name="Outlined"><g id="Action-97" data-name="Action"><g id="Outlined-_-Action-_-note_add-97" data-name="Outlined-/-Action-/-note_add"><polygon id="Path-97" data-name="Path" class="cls-1" points="1767.19 717.32 1865.03 762.94 1819.4 860.78 1721.57 815.16 1767.19 717.32"/><path id="_-Icon-Color-97" data-name="🔹-Icon-Color" class="cls-2" d="M1799.27,786.87l-8.15-3.8-5.7,12.23-12.23-5.7-3.8,8.15,12.23,5.71-5.71,12.23,8.16,3.8,5.7-12.23L1802,813l3.8-8.15-12.23-5.71Zm21.19-34.78-32.61-15.21a9,9,0,0,0-12,4.35l-30.41,65.23a9,9,0,0,0,4.35,11.95l48.92,22.81a9,9,0,0,0,12-4.35L1833.51,788Zm-17.91,81-48.92-22.81L1784,745l28.54,13.31-9.5,20.38,20.38,9.51Z"/></g></g></g></g><g id="Icons-98" data-name="Icons"><g id="Outlined-98" data-name="Outlined"><g id="Action-98" data-name="Action"><g id="Outlined-_-Action-_-note_add-98" data-name="Outlined-/-Action-/-note_add"><polygon id="Path-98" data-name="Path" class="cls-1" points="1910.65 717.32 2008.49 762.94 1962.87 860.78 1865.03 815.16 1910.65 717.32"/><path id="_-Icon-Color-98" data-name="🔹-Icon-Color" class="cls-2" d="M1942.74,786.87l-8.16-3.8-5.7,12.23-12.23-5.7-3.8,8.15,12.23,5.71-5.7,12.23,8.15,3.8,5.7-12.23,12.23,5.7,3.8-8.15L1937,799.1Zm21.18-34.78-32.61-15.21a9,9,0,0,0-12,4.35l-30.41,65.23a9,9,0,0,0,4.35,11.95l48.92,22.81a9,9,0,0,0,12-4.35L1977,788Zm-17.91,81-48.92-22.81L1927.51,745,1956,758.34l-9.5,20.38,20.38,9.51Z"/></g></g></g></g><g id="Icons-99" data-name="Icons"><g id="Outlined-99" data-name="Outlined"><g id="Action-99" data-name="Action"><g id="Outlined-_-Action-_-note_add-99" data-name="Outlined-/-Action-/-note_add"><polygon id="Path-99" data-name="Path" class="cls-1" points="45.62 1004.25 143.46 1049.87 97.84 1147.71 0 1102.09 45.62 1004.25"/><path id="_-Icon-Color-99" data-name="🔹-Icon-Color" class="cls-2" d="M77.71,1073.8l-8.15-3.8-5.71,12.23-12.23-5.7-3.8,8.15,12.23,5.7-5.7,12.23,8.15,3.81,5.7-12.23,12.23,5.7,3.81-8.15L72,1086ZM98.9,1039l-32.62-15.2a9,9,0,0,0-12,4.35l-30.42,65.22a9,9,0,0,0,4.35,12l48.92,22.81a9,9,0,0,0,12-4.35L112,1074.88ZM81,1120l-48.92-22.81L62.48,1032,91,1045.27l-9.51,20.38,20.38,9.5Z"/></g></g></g></g><g id="Icons-100" data-name="Icons"><g id="Outlined-100" data-name="Outlined"><g id="Action-100" data-name="Action"><g id="Outlined-_-Action-_-note_add-100" data-name="Outlined-/-Action-/-note_add"><polygon id="Path-100" data-name="Path" class="cls-1" points="189.09 1004.25 286.93 1049.87 241.3 1147.71 143.46 1102.09 189.09 1004.25"/><path id="_-Icon-Color-100" data-name="🔹-Icon-Color" class="cls-2" d="M221.17,1073.8,213,1070l-5.7,12.23-12.23-5.7-3.81,8.15,12.23,5.7-5.7,12.23,8.16,3.81,5.7-12.23,12.23,5.7,3.8-8.15L215.47,1086ZM242.36,1039l-32.61-15.2a9,9,0,0,0-12,4.35l-30.42,65.22a9,9,0,0,0,4.36,12l48.92,22.81a9,9,0,0,0,11.95-4.35l22.81-48.92Zm-17.91,81-48.92-22.81L205.94,1032l28.54,13.31-9.5,20.38,20.38,9.5Z"/></g></g></g></g><g id="Icons-101" data-name="Icons"><g id="Outlined-101" data-name="Outlined"><g id="Action-101" data-name="Action"><g id="Outlined-_-Action-_-note_add-101" data-name="Outlined-/-Action-/-note_add"><polygon id="Path-101" data-name="Path" class="cls-1" points="332.55 1004.25 430.39 1049.87 384.77 1147.71 286.93 1102.09 332.55 1004.25"/><path id="_-Icon-Color-101" data-name="🔹-Icon-Color" class="cls-2" d="M364.64,1073.8l-8.16-3.8-5.7,12.23-12.23-5.7-3.8,8.15,12.23,5.7-5.7,12.23,8.15,3.81,5.7-12.23,12.23,5.7,3.8-8.15L358.93,1086ZM385.82,1039l-32.61-15.2a9,9,0,0,0-12,4.35l-30.41,65.22a9,9,0,0,0,4.35,12l48.92,22.81a9,9,0,0,0,11.95-4.35l22.82-48.92Zm-17.91,81L319,1097.19,349.41,1032l28.53,13.31-9.5,20.38,20.38,9.5Z"/></g></g></g></g><g id="Icons-102" data-name="Icons"><g id="Outlined-102" data-name="Outlined"><g id="Action-102" data-name="Action"><g id="Outlined-_-Action-_-note_add-102" data-name="Outlined-/-Action-/-note_add"><polygon id="Path-102" data-name="Path" class="cls-1" points="476.01 1004.25 573.86 1049.87 528.23 1147.71 430.39 1102.09 476.01 1004.25"/><path id="_-Icon-Color-102" data-name="🔹-Icon-Color" class="cls-2" d="M508.1,1073.8,500,1070l-5.71,12.23-12.23-5.7-3.8,8.15,12.23,5.7-5.7,12.23,8.15,3.81,5.71-12.23,12.23,5.7,3.8-8.15L502.4,1086ZM529.29,1039l-32.62-15.2a9,9,0,0,0-11.95,4.35l-30.42,65.22a9,9,0,0,0,4.35,12l48.92,22.81a9,9,0,0,0,12-4.35l22.81-48.92Zm-17.91,81-48.92-22.81L492.87,1032l28.54,13.31-9.51,20.38,20.39,9.5Z"/></g></g></g></g><g id="Icons-103" data-name="Icons"><g id="Outlined-103" data-name="Outlined"><g id="Action-103" data-name="Action"><g id="Outlined-_-Action-_-note_add-103" data-name="Outlined-/-Action-/-note_add"><polygon id="Path-103" data-name="Path" class="cls-1" points="619.48 1004.25 717.32 1049.87 671.7 1147.71 573.86 1102.09 619.48 1004.25"/><path id="_-Icon-Color-103" data-name="🔹-Icon-Color" class="cls-2" d="M651.56,1073.8l-8.15-3.8-5.7,12.23-12.23-5.7-3.8,8.15,12.23,5.7-5.71,12.23,8.16,3.81,5.7-12.23,12.23,5.7,3.8-8.15L645.86,1086ZM672.75,1039l-32.61-15.2a9,9,0,0,0-12,4.35l-30.41,65.22a9,9,0,0,0,4.35,12L651,1128.15a9,9,0,0,0,12-4.35l22.81-48.92Zm-17.91,81-48.92-22.81L636.33,1032l28.54,13.31-9.5,20.38,20.38,9.5Z"/></g></g></g></g><g id="Icons-104" data-name="Icons"><g id="Outlined-104" data-name="Outlined"><g id="Action-104" data-name="Action"><g id="Outlined-_-Action-_-note_add-104" data-name="Outlined-/-Action-/-note_add"><polygon id="Path-104" data-name="Path" class="cls-1" points="762.94 1004.25 860.78 1049.87 815.16 1147.71 717.32 1102.09 762.94 1004.25"/><path id="_-Icon-Color-104" data-name="🔹-Icon-Color" class="cls-2" d="M795,1073.8l-8.16-3.8-5.7,12.23-12.23-5.7-3.8,8.15,12.23,5.7-5.7,12.23,8.15,3.81,5.7-12.23,12.23,5.7,3.81-8.15L789.33,1086ZM816.21,1039l-32.61-15.2a9,9,0,0,0-12,4.35l-30.42,65.22a9,9,0,0,0,4.35,12l48.92,22.81a9,9,0,0,0,12-4.35l22.81-48.92Zm-17.91,81-48.92-22.81L779.8,1032l28.54,13.31-9.51,20.38,20.38,9.5Z"/></g></g></g></g><g id="Icons-105" data-name="Icons"><g id="Outlined-105" data-name="Outlined"><g id="Action-105" data-name="Action"><g id="Outlined-_-Action-_-note_add-105" data-name="Outlined-/-Action-/-note_add"><polygon id="Path-105" data-name="Path" class="cls-1" points="906.41 1004.25 1004.25 1049.87 958.62 1147.71 860.78 1102.09 906.41 1004.25"/><path id="_-Icon-Color-105" data-name="🔹-Icon-Color" class="cls-2" d="M938.49,1073.8l-8.15-3.8-5.7,12.23-12.23-5.7-3.81,8.15,12.23,5.7-5.7,12.23,8.15,3.81,5.71-12.23,12.23,5.7,3.8-8.15L932.79,1086ZM959.68,1039l-32.62-15.2a9,9,0,0,0-11.95,4.35l-30.42,65.22a9,9,0,0,0,4.35,12L938,1128.15a9,9,0,0,0,12-4.35l22.81-48.92Zm-17.91,81-48.92-22.81L923.26,1032l28.54,13.31-9.51,20.38,20.39,9.5Z"/></g></g></g></g><g id="Icons-106" data-name="Icons"><g id="Outlined-106" data-name="Outlined"><g id="Action-106" data-name="Action"><g id="Outlined-_-Action-_-note_add-106" data-name="Outlined-/-Action-/-note_add"><polygon id="Path-106" data-name="Path" class="cls-1" points="1049.87 1004.25 1147.71 1049.87 1102.09 1147.71 1004.25 1102.09 1049.87 1004.25"/><path id="_-Icon-Color-106" data-name="🔹-Icon-Color" class="cls-2" d="M1082,1073.8l-8.16-3.8-5.7,12.23-12.23-5.7-3.8,8.15,12.23,5.7-5.71,12.23,8.16,3.81,5.7-12.23,12.23,5.7,3.8-8.15-12.23-5.71Zm21.18-34.79-32.61-15.2a9,9,0,0,0-12,4.35l-30.41,65.22a9,9,0,0,0,4.35,12l48.92,22.81a9,9,0,0,0,12-4.35l22.82-48.92Zm-17.91,81-48.92-22.81,30.42-65.23,28.53,13.31-9.5,20.38,20.38,9.5Z"/></g></g></g></g><g id="Icons-107" data-name="Icons"><g id="Outlined-107" data-name="Outlined"><g id="Action-107" data-name="Action"><g id="Outlined-_-Action-_-note_add-107" data-name="Outlined-/-Action-/-note_add"><polygon id="Path-107" data-name="Path" class="cls-1" points="1193.33 1004.25 1291.17 1049.87 1245.55 1147.71 1147.71 1102.09 1193.33 1004.25"/><path id="_-Icon-Color-107" data-name="🔹-Icon-Color" class="cls-2" d="M1225.42,1073.8l-8.15-3.8-5.71,12.23-12.23-5.7-3.8,8.15,12.23,5.7-5.7,12.23,8.15,3.81,5.7-12.23,12.23,5.7,3.81-8.15-12.23-5.71ZM1246.6,1039l-32.61-15.2a9,9,0,0,0-12,4.35l-30.42,65.22a9,9,0,0,0,4.35,12l48.92,22.81a9,9,0,0,0,12-4.35l22.81-48.92Zm-17.91,81-48.92-22.81,30.42-65.23,28.54,13.31-9.51,20.38,20.38,9.5Z"/></g></g></g></g><g id="Icons-108" data-name="Icons"><g id="Outlined-108" data-name="Outlined"><g id="Action-108" data-name="Action"><g id="Outlined-_-Action-_-note_add-108" data-name="Outlined-/-Action-/-note_add"><polygon id="Path-108" data-name="Path" class="cls-1" points="1336.8 1004.25 1434.64 1049.87 1389.01 1147.71 1291.17 1102.09 1336.8 1004.25"/><path id="_-Icon-Color-108" data-name="🔹-Icon-Color" class="cls-2" d="M1368.88,1073.8l-8.15-3.8-5.7,12.23-12.23-5.7-3.81,8.15,12.23,5.7-5.7,12.23,8.16,3.81,5.7-12.23,12.23,5.7,3.8-8.15-12.23-5.71Zm21.19-34.79-32.61-15.2a9,9,0,0,0-12,4.35l-30.42,65.22a9,9,0,0,0,4.36,12l48.92,22.81a9,9,0,0,0,12-4.35l22.81-48.92Zm-17.91,81-48.92-22.81,30.41-65.23,28.54,13.31-9.5,20.38,20.38,9.5Z"/></g></g></g></g><g id="Icons-109" data-name="Icons"><g id="Outlined-109" data-name="Outlined"><g id="Action-109" data-name="Action"><g id="Outlined-_-Action-_-note_add-109" data-name="Outlined-/-Action-/-note_add"><polygon id="Path-109" data-name="Path" class="cls-1" points="1480.26 1004.25 1578.1 1049.87 1532.48 1147.71 1434.64 1102.09 1480.26 1004.25"/><path id="_-Icon-Color-109" data-name="🔹-Icon-Color" class="cls-2" d="M1512.35,1073.8l-8.16-3.8-5.7,12.23-12.23-5.7-3.8,8.15,12.23,5.7-5.7,12.23,8.15,3.81,5.7-12.23,12.23,5.7,3.8-8.15-12.23-5.71Zm21.18-34.79-32.61-15.2a9,9,0,0,0-12,4.35l-30.41,65.22a9,9,0,0,0,4.35,12l48.92,22.81a9,9,0,0,0,12-4.35l22.82-48.92Zm-17.91,81-48.92-22.81,30.42-65.23,28.53,13.31-9.5,20.38,20.38,9.5Z"/></g></g></g></g><g id="Icons-110" data-name="Icons"><g id="Outlined-110" data-name="Outlined"><g id="Action-110" data-name="Action"><g id="Outlined-_-Action-_-note_add-110" data-name="Outlined-/-Action-/-note_add"><polygon id="Path-110" data-name="Path" class="cls-1" points="1623.72 1004.25 1721.57 1049.87 1675.94 1147.71 1578.1 1102.09 1623.72 1004.25"/><path id="_-Icon-Color-110" data-name="🔹-Icon-Color" class="cls-2" d="M1655.81,1073.8l-8.15-3.8-5.71,12.23-12.23-5.7-3.8,8.15,12.23,5.7-5.7,12.23,8.15,3.81,5.71-12.23,12.23,5.7,3.8-8.15-12.23-5.71ZM1677,1039l-32.62-15.2a9,9,0,0,0-12,4.35L1602,1093.38a9,9,0,0,0,4.35,12l48.92,22.81a9,9,0,0,0,12-4.35l22.81-48.92Zm-17.92,81-48.92-22.81,30.42-65.23,28.54,13.31-9.51,20.38,20.39,9.5Z"/></g></g></g></g><g id="Icons-111" data-name="Icons"><g id="Outlined-111" data-name="Outlined"><g id="Action-111" data-name="Action"><g id="Outlined-_-Action-_-note_add-111" data-name="Outlined-/-Action-/-note_add"><polygon id="Path-111" data-name="Path" class="cls-1" points="1767.19 1004.25 1865.03 1049.87 1819.4 1147.71 1721.57 1102.09 1767.19 1004.25"/><path id="_-Icon-Color-111" data-name="🔹-Icon-Color" class="cls-2" d="M1799.27,1073.8l-8.15-3.8-5.7,12.23-12.23-5.7-3.8,8.15,12.23,5.7-5.71,12.23,8.16,3.81,5.7-12.23,12.23,5.7,3.8-8.15-12.23-5.71Zm21.19-34.79-32.61-15.2a9,9,0,0,0-12,4.35l-30.41,65.22a9,9,0,0,0,4.35,12l48.92,22.81a9,9,0,0,0,12-4.35l22.81-48.92Zm-17.91,81-48.92-22.81L1784,1032l28.54,13.31-9.5,20.38,20.38,9.5Z"/></g></g></g></g><g id="Icons-112" data-name="Icons"><g id="Outlined-112" data-name="Outlined"><g id="Action-112" data-name="Action"><g id="Outlined-_-Action-_-note_add-112" data-name="Outlined-/-Action-/-note_add"><polygon id="Path-112" data-name="Path" class="cls-1" points="1910.65 1004.25 2008.49 1049.87 1962.87 1147.71 1865.03 1102.09 1910.65 1004.25"/><path id="_-Icon-Color-112" data-name="🔹-Icon-Color" class="cls-2" d="M1942.74,1073.8l-8.16-3.8-5.7,12.23-12.23-5.7-3.8,8.15,12.23,5.7-5.7,12.23,8.15,3.81,5.7-12.23,12.23,5.7,3.8-8.15L1937,1086Zm21.18-34.79-32.61-15.2a9,9,0,0,0-12,4.35l-30.41,65.22a9,9,0,0,0,4.35,12l48.92,22.81a9,9,0,0,0,12-4.35l22.81-48.92ZM1946,1120l-48.92-22.81,30.42-65.23,28.53,13.31-9.5,20.38,20.38,9.5Z"/></g></g></g></g></g></g></svg>