<svg
      xmlns="http://www.w3.org/2000/svg"
      width="512"
      height="512"
      enableBackground="new 0 0 512 512"
      viewBox="0 0 512.001 512.001"
    >
      <path
        xmlns="http://www.w3.org/2000/svg"
        fill="#4bb3a4"
        d="M176.802 30.333l-29.488 71.914-90.91-90.91c38.923-19.92 87.814-13.588 120.398 18.996z"
        data-original="#4bb3a4"
      ></path>
      <path
        xmlns="http://www.w3.org/2000/svg"
        fill="#60d9ce"
        d="M103.565 103.564L212.254 254.68l66.277-66.277-72.174-72.174c3.755-30.554-6.102-62.445-29.557-85.899l-73.235 73.234z"
        data-original="#60d9ce"
      ></path>
      <path
        xmlns="http://www.w3.org/2000/svg"
        fill="#4bb3a4"
        d="M103.565 103.564l129.903 129.903-45.071 45.071-72.174-72.174c-30.547 3.748-62.438-6.109-85.892-29.564C-2.254 144.215-8.582 95.333 11.337 56.407l69.692 69.692 22.536-22.535z"
        data-original="#4bb3a4"
      ></path>
      <path
        xmlns="http://www.w3.org/2000/svg"
        fill="#60d9ce"
        d="M335.2 481.667l29.488-71.914 90.91 90.91c-38.924 19.92-87.814 13.588-120.398-18.996z"
        data-original="#60d9ce"
      ></path>
      <path
        xmlns="http://www.w3.org/2000/svg"
        fill="#4bb3a4"
        d="M408.437 408.436L299.747 257.32l-66.277 66.277 72.174 72.174c-3.755 30.554 6.102 62.445 29.557 85.899l73.236-73.234z"
        data-original="#4bb3a4"
      ></path>
      <path
        xmlns="http://www.w3.org/2000/svg"
        fill="#60d9ce"
        d="M408.437 408.436L278.534 278.533l45.071-45.071 72.174 72.174c30.547-3.748 62.438 6.109 85.892 29.564 32.583 32.583 38.912 81.466 18.993 120.392L430.972 385.9l-22.535 22.536z"
        data-original="#60d9ce"
      ></path>
      <path
        xmlns="http://www.w3.org/2000/svg"
        fill="#ff6126"
        d="M486.783 25.217l11.267 11.267c18.59 18.59 18.59 49.011 0 67.601l-27.356 27.356-73.352-45.067 89.441-61.157z"
        data-original="#ff6126"
      ></path>
      <path
        xmlns="http://www.w3.org/2000/svg"
        fill="#ff8151"
        d="M475.516 13.951l11.267 11.267-75.299 75.299-30.925-59.21 27.356-27.356c18.59-18.591 49.011-18.591 67.601 0z"
        data-original="#ff8151"
      ></path>
      <path
        xmlns="http://www.w3.org/2000/svg"
        fill="#a3fdf6"
        d="M425.626 86.373L470.694 131.441 425.626 176.508 352.275 131.441z"
        data-original="#a3fdf6"
      ></path>
      <path
        xmlns="http://www.w3.org/2000/svg"
        fill="#dbfffa"
        d="M380.559 41.306L425.627 86.374 366.417 145.583 335.492 86.374z"
        data-original="#dbfffa"
      ></path>
      <path
        xmlns="http://www.w3.org/2000/svg"
        fill="#000e0f"
        d="M41.361 456.502L51.26 494.686 6.005 506z"
        data-original="#000e0f"
      ></path>
      <path
        xmlns="http://www.w3.org/2000/svg"
        fill="#116371"
        d="M17.319 460.745L34.29 477.715 6.005 506z"
        data-original="#116371"
      ></path>
      <path
        xmlns="http://www.w3.org/2000/svg"
        fill="#ffa07d"
        d="M88.192 409.67L126.185 475.948 51.26 494.686 34.29 477.715z"
        data-original="#ffa07d"
      ></path>
      <path
        xmlns="http://www.w3.org/2000/svg"
        fill="#ffc0a8"
        d="M36.05 385.813L81.121 430.884 34.29 477.715 17.319 460.745z"
        data-original="#ffc0a8"
      ></path>
      <path
        xmlns="http://www.w3.org/2000/svg"
        fill="#ffd15e"
        d="M380.559 131.441L425.627 176.509 126.184 475.952 81.116 430.884 209.624 259.95z"
        data-original="#ffd15e"
      ></path>
      <path
        xmlns="http://www.w3.org/2000/svg"
        fill="#ffea7c"
        d="M176.437 46.888H240.17100000000002V470.364H176.437z"
        data-original="#ffea7c"
        transform="rotate(45.001 208.308 258.625)"
      ></path>
    </svg>

