<svg
 xmlns="http://www.w3.org/2000/svg"
 width="512"
 height="512"
 enable-background="new 0 0 512 512"
 view-box="0 0 512.001 512"
>
 <path
  xmlns="http://www.w3.org/2000/svg"
  fill="#e1ebf0"
  d="M366.496 331.695L170.546 135.75l41.442-41.441a1.83 1.83 0 012.582 0l193.364 193.363a1.827 1.827 0 010 2.586zm0 0"
  data-original="#e1ebf0"
 />
 <path
  xmlns="http://www.w3.org/2000/svg"
  fill="#b4d2d7"
  d="M407.934 287.672L214.57 94.309a1.83 1.83 0 00-2.582 0l-19.312 19.312 159.676 159.676c8.652 8.652 8.652 22.683 0 31.336l-6.461 6.46 20.605 20.606 41.438-41.441a1.827 1.827 0 000-2.586zm0 0"
  data-original="#b4d2d7"
 />
 <path
  xmlns="http://www.w3.org/2000/svg"
  fill="#fffbd0"
  d="M406.996 286.734L215.512 95.25 308.27 2.488c4.011-4.011 10.812-3.039 13.437 1.985 6.07 11.617 1.414 21.261 14.277 34.125 15.954 15.957 26.957 4.953 42.914 20.91s4.954 26.96 20.91 42.918c15.958 15.953 26.962 4.949 42.919 20.906 15.96 15.961 4.953 26.965 20.914 42.922 12.867 12.867 22.511 8.207 34.132 14.281 5.024 2.63 5.993 9.426 1.985 13.438zm0 0"
  data-original="#fffbd0"
 />
 <g xmlns="http://www.w3.org/2000/svg" fill="#fff8b1">
  <path
   d="M387.371 221.543a7.728 7.728 0 00-10.93-10.926l-22.78 22.781 10.929 10.93zm0 0M268.844 148.586l22.785-22.785a7.728 7.728 0 00-10.93-10.926l-22.781 22.781zm0 0M316.719 196.457l22.781-22.785a7.728 7.728 0 00-10.93-10.926l-22.78 22.781zm0 0"
   data-original="#fff8b1"
  />
  <path
   d="M497.773 180.535c-11.62-6.074-21.265-1.414-34.132-14.281-15.961-15.957-4.954-26.961-20.914-42.918-15.957-15.957-26.961-4.953-42.918-20.91s-4.954-26.961-20.91-42.918c-15.954-15.957-26.958-4.953-42.915-20.91-12.863-12.864-8.207-22.508-14.277-34.125-2.625-5.024-9.426-5.993-13.437-1.985l-22.223 22.227c1.363 4.344 3.715 8.87 8.73 13.887 15.953 15.953 26.957 4.949 42.914 20.906 15.957 15.957 4.954 26.96 20.91 42.918 15.958 15.957 26.961 4.953 42.919 20.91 15.96 15.957 4.953 26.96 20.914 42.922 12.867 12.867 22.511 8.203 34.132 14.281 5.024 2.625 5.993 9.426 1.985 13.434l-72.156 72.16 20.601 20.601 92.762-92.761c4.008-4.008 3.039-10.809-1.985-13.438zm0 0"
   data-original="#fff8b1"
  />
 </g>
 <path
  xmlns="http://www.w3.org/2000/svg"
  fill="#ea7f87"
  d="M345.27 113.145c21.91 21.906 8.218 35.597 30.128 57.507 21.91 21.91 35.602 8.223 57.516 30.133 15.996 16 13.027 27.617 18.781 41.25l48.063-48.062c4.008-4.008 3.039-10.809-1.988-13.438-11.618-6.074-21.262-1.414-34.13-14.281-15.96-15.957-4.956-26.961-20.913-42.922-15.957-15.957-26.961-4.953-42.918-20.91s-4.954-26.961-20.91-42.918c-15.958-15.953-26.962-4.95-42.919-20.906-12.863-12.864-8.203-22.508-14.273-34.125-2.629-5.028-9.43-5.996-13.437-1.985l-39.29 39.285c5.75 13.63 2.786 25.247 18.778 41.239 21.914 21.914 35.601 8.222 57.512 30.133zm0 0"
  data-original="#ea7f87"
 />
 <path
  xmlns="http://www.w3.org/2000/svg"
  fill="#e5646e"
  d="M500.543 182.871c-1.168-1.535-2.43-2.207-3.996-2.941-11.11-5.168-20.5-1.27-32.906-13.676-15.973-15.973-4.965-26.973-20.914-42.918-12.899-12.902-22.465-8.176-34.149-14.29-4.898-2.57-9.426-6.831-12.453-10.808-10.559-13.836-2.668-24.175-17.223-38.73-16.386-16.383-27.59-4.406-44.074-22.106-11.433-12.285-7.234-21.668-13.121-32.93-2.621-5.019-9.422-6-13.437-1.984-7.77 7.774-14.45 14.45-22.223 22.223 1.363 4.348 3.715 8.871 8.73 13.887 15.957 15.957 26.961 4.953 42.918 20.91s4.953 26.96 20.91 42.918c15.954 15.957 26.961 4.953 42.915 20.91 15.96 15.957 4.957 26.96 20.914 42.918 12.867 12.867 22.511 8.207 34.132 14.281 5.024 2.63 5.993 9.43 1.985 13.438l-17.258 17.257c6.715 11.016 5.977 20.317 10.402 30.805l48.063-48.062c3.094-3.094 3.23-7.875.785-11.102zm0 0"
  data-original="#e5646e"
 />
 <path
  xmlns="http://www.w3.org/2000/svg"
  fill="#d29380"
  d="M170.547 135.75l-60.45 60.453c-13.05 13.047-13.05 34.203 0 47.25l34.743 34.742c7.14 7.14 6.566 18.887-1.235 25.297L20.02 405.047c-25.028 20.566-26.864 58.23-3.961 81.137 22.906 22.906 60.57 21.066 81.136-3.961L198.754 358.64c6.41-7.805 18.152-8.38 25.293-1.235l34.742 34.742c13.05 13.047 34.203 13.047 47.254 0l60.45-60.453zM67.23 463.27c-7.8 7.804-20.453 7.804-28.257 0-7.801-7.801-7.801-20.454 0-28.258 7.804-7.801 20.457-7.801 28.257 0 7.805 7.804 7.805 20.457 0 28.258zm0 0"
  data-original="#d29380"
 />
 <path
  xmlns="http://www.w3.org/2000/svg"
  fill="#c97e67"
  d="M170.547 135.75l-10.3 10.3 113.886 113.887c28.25 28.254 28.25 74.06 0 102.31l-9.297 9.3a33.29 33.29 0 01-17.438 9.21l11.391 11.391c13.05 13.051 34.203 13.051 47.254 0l60.45-60.449zm0 0M182.84 336.8c-7.14-7.14-18.883-6.566-25.293 1.235l-85.668 104.25c2.574 7.074 1.027 15.313-4.649 20.985-4.945 4.945-11.84 6.757-18.21 5.433-10.567 8.957-23.844 13.305-37.051 12.914a55.89 55.89 0 004.09 4.567c22.906 22.906 60.57 21.066 81.136-3.961L198.754 358.64a17.078 17.078 0 013.035-2.891zm0 0"
  data-original="#c97e67"
 />
 <path
  xmlns="http://www.w3.org/2000/svg"
  fill="#ea7f87"
  d="M512 296.328c0 14.453-11.715 26.168-26.164 26.168-14.453 0-26.168-11.715-26.168-26.168 0-14.45 18.238-45.355 26.168-45.355 7.926 0 26.164 30.906 26.164 45.355zm0 0"
  data-original="#ea7f87"
 />
 <path
  xmlns="http://www.w3.org/2000/svg"
  fill="#e5646e"
  d="M485.836 250.973c-1.734 0-3.961 1.476-6.379 3.937 6.34 10.05 11.941 23.11 11.941 31.117 0 14.45-11.714 26.164-26.168 26.164h-.207c4.782 6.262 12.325 10.305 20.813 10.305 14.45 0 26.164-11.715 26.164-26.168 0-14.45-18.238-45.355-26.164-45.355zm0 0"
  data-original="#e5646e"
 />
 <path
  xmlns="http://www.w3.org/2000/svg"
  fill="#b4d2d7"
  d="M362.145 292.34a7.714 7.714 0 01-5.465-2.262L212.168 145.563a7.721 7.721 0 010-10.926 7.728 7.728 0 0110.926 0l144.515 144.515a7.721 7.721 0 010 10.926 7.708 7.708 0 01-5.464 2.262zm0 0"
  data-original="#b4d2d7"
 />
 <path
  xmlns="http://www.w3.org/2000/svg"
  fill="#9bb9c3"
  d="M223.094 134.637a7.732 7.732 0 00-10.114-.711l139.372 139.37c4.98 4.981 7.093 11.743 6.34 18.235 1.085.54 2.269.809 3.453.809 1.98 0 3.957-.754 5.464-2.262a7.726 7.726 0 000-10.93zm0 0"
  data-original="#9bb9c3"
 />
</svg>
